<svg id="Layer_1" data-name="Layer 1" xmlns="http://www.w3.org/2000/svg" viewBox="0 0 325 400"><defs><style>.cls-1{fill:#c7b299;}.cls-2{font-size:34.39px;font-family:PTSans-Narrow, PT Sans Narrow;}.cls-3{fill:#999;}.cls-4{fill:none;}.cls-4,.cls-5{stroke:#999;stroke-miterlimit:10;stroke-width:3px;}.cls-5{fill:lime;}.cls-6{fill:#ff7bac;}.cls-7{fill:#603813;}</style></defs><title>love</title><rect class="cls-1" width="325" height="400"/><text class="cls-2" transform="translate(93.97 316.29) scale(0.93 1)">MISSING ME</text><polygon class="cls-3" points="106.48 162.76 61.48 251 151.48 251 106.48 162.76"/><line class="cls-4" x1="120.42" y1="193.86" x2="158.89" y2="208.63"/><line class="cls-5" x1="95.57" y1="192.41" x2="54" y2="208.44"/><polygon class="cls-3" points="210.09 162.76 165.09 251 255.09 251 210.09 162.76"/><line class="cls-5" x1="224.03" y1="193.86" x2="262.5" y2="208.63"/><line class="cls-5" x1="199.18" y1="192.41" x2="157.61" y2="208.44"/><ellipse class="cls-6" cx="175.91" cy="90.23" rx="7.91" ry="8.23"/><ellipse class="cls-6" cx="191.09" cy="90.23" rx="7.91" ry="8.23"/><polygon class="cls-6" points="183.48 110 197.1 95.52 169.85 95.52 183.48 110"/><rect class="cls-6" x="180.65" y="91.87" width="6.33" height="5.26"/><ellipse class="cls-6" cx="128.91" cy="97.23" rx="7.91" ry="8.23"/><ellipse class="cls-6" cx="144.09" cy="97.23" rx="7.91" ry="8.23"/><polygon class="cls-6" points="136.48 117 150.1 102.52 122.85 102.52 136.48 117"/><rect class="cls-6" x="133.65" y="98.87" width="6.33" height="5.26"/><ellipse class="cls-6" cx="154.91" cy="130.23" rx="7.91" ry="8.23"/><ellipse class="cls-6" cx="170.09" cy="130.23" rx="7.91" ry="8.23"/><polygon class="cls-6" points="162.48 150 176.1 135.52 148.85 135.52 162.48 150"/><rect class="cls-6" x="159.65" y="131.87" width="6.33" height="5.26"/><path class="cls-7" d="M146,169.5a71.84,71.84,0,0,1-3.85,23.5H70.85A71.84,71.84,0,0,1,67,169.5c0-30.1,17.68-54.5,39.5-54.5S146,139.4,146,169.5Z"/><ellipse class="cls-3" cx="106.48" cy="159.05" rx="30.97" ry="37.05"/><circle cx="210.5" cy="143.5" r="24.5"/><ellipse class="cls-3" cx="210.09" cy="159.05" rx="30.97" ry="37.05"/></svg>