<svg id="Layer_1" data-name="Layer 1" xmlns="http://www.w3.org/2000/svg" viewBox="0 0 325 400"><defs><style>.cls-1{fill:#c7b299;}.cls-2{font-size:34.39px;}.cls-10,.cls-2{font-family:PTSans-Narrow, PT Sans Narrow;}.cls-3{letter-spacing:-0.03em;}.cls-4{fill:#ffc0ac;}.cls-5{fill:lime;}.cls-5,.cls-6{stroke:gray;stroke-miterlimit:10;stroke-width:3px;}.cls-6{fill:none;}.cls-7{fill:gray;}.cls-8{fill:#fff;}.cls-9{fill:red;}.cls-10{font-size:30px;}</style></defs><title>stressed</title><rect class="cls-1" width="325" height="400"/><text class="cls-2" transform="translate(77.52 316.29) scale(0.93 1)">STRESSED OU<tspan class="cls-3" x="167.68" y="0">T</tspan></text><polygon class="cls-4" points="163 145.17 99.06 255.92 226.94 255.92 163 145.17"/><line class="cls-5" x1="188" y1="188" x2="247" y2="160"/><line class="cls-6" x1="138" y1="188" x2="79" y2="160"/><ellipse class="cls-7" cx="163" cy="139.5" rx="44" ry="46.5"/><rect class="cls-8" x="167.73" y="200.71" width="9.16" height="14.57"/><path class="cls-8" d="M177.4,201.29a39.78,39.78,0,0,1,6.6.53V199.2c-1.55-.13-3.16-.2-4.8-.2a55.53,55.53,0,0,0-9.87.85C161.45,201.29,156,204.4,156,208s5.45,6.71,13.33,8.15a55.53,55.53,0,0,0,9.87.85c1.65,0,3.25-.07,4.8-.2v-2.34a39.2,39.2,0,0,1-6.6.53,38.33,38.33,0,0,1-8.08-.81V202.1A38,38,0,0,1,177.4,201.29Z" transform="translate(0 0)"/><path class="cls-9" d="M169.29,202.1v12.08c-5.89-1.15-9.9-3.42-9.9-6S163.4,203.26,169.29,202.1Z" transform="translate(0 0)"/><text class="cls-10" transform="translate(163.87 86.88)">?</text><text class="cls-10" transform="translate(216.3 129.12)">?</text><text class="cls-10" transform="translate(69.32 99.65)">?</text><text class="cls-10" transform="translate(96.32 157.65)">?</text><text class="cls-10" transform="translate(212.84 160.39)">?</text><text class="cls-10" transform="translate(87.32 118.65)">?</text><text class="cls-10" transform="translate(201.32 90.65)">?</text><text class="cls-10" transform="translate(131.32 81.65)">?</text><text class="cls-10" transform="translate(113.32 109.65)">?</text><text class="cls-10" transform="translate(240.32 130.65)">?</text><text class="cls-10" transform="translate(69.32 143.65)">?</text><text class="cls-10" transform="translate(234.32 85.65)">?</text><text class="cls-10" transform="translate(183.32 62.65)">?</text><text class="cls-10" transform="translate(99.32 72.65)">?</text><text class="cls-10" transform="translate(146.32 52.65)">?</text></svg>