<svg id="Layer_1" data-name="Layer 1" xmlns="http://www.w3.org/2000/svg" viewBox="0 0 325 400"><defs><style>.cls-1{fill:#c7b299;}.cls-2,.cls-5{fill:#bd81d4;}.cls-2{stroke:#000;}.cls-2,.cls-8{stroke-miterlimit:10;}.cls-3{fill:#666;}.cls-4{fill:#bd48d4;}.cls-6,.cls-9{isolation:isolate;}.cls-6{font-size:20.63px;font-family:PTSans-Narrow, PT Sans Narrow;}.cls-7,.cls-8{fill:none;}.cls-8{stroke:red;stroke-width:3px;}</style></defs><title>unmotivated</title><rect class="cls-1" width="325" height="400"/><ellipse class="cls-2" cx="115.4" cy="227.4" rx="13.9" ry="14.9"/><path class="cls-3" d="M115.3,108.2c-10,0-18.1,6.6-18.1,14.7v106c0,8.1,8.1,14.6,18.1,14.6h92.2V108.2Zm13,119.8a10.71,10.71,0,0,1-7.1,10.2h-3.6v.6a10.9,10.9,0,1,1,10.7-11.1v.3Z"/><path class="cls-3" d="M97.2,197.2V90.8c0-8.1,8.1-14.7,18.1-14.7h92.2V211.9H115.3C105.4,211.9,97.2,205.3,97.2,197.2Z"/><path class="cls-4" d="M227.9,122.4V228.7c0,8.1-8.1,14.7-18.1,14.7H117.6v-5.2h3.6a11,11,0,0,0-3.6-21.2V107.7h92.2C219.7,107.7,227.9,114.3,227.9,122.4Z"/><path class="cls-5" d="M227.9,117.2V223.6c0,8.1-8.1,14.7-18.1,14.7H121.2a11,11,0,0,0-3.6-21.2V102.5h92.2C219.7,102.5,227.9,109.1,227.9,117.2Z"/><path class="cls-5" d="M227.9,106V222.8c0,8.9-8.1,16.1-18.1,16.1H117.6V89.9h92.2C219.7,89.9,227.9,97.2,227.9,106Z"/><path class="cls-4" d="M227.9,96.1V202.5c0,8.1-8.1,14.7-18.1,14.7H117.6V81.3h92.2C219.7,81.3,227.9,88,227.9,96.1Z"/><path class="cls-5" d="M227.9,90.8V197.2c0,8.1-8.1,14.7-18.1,14.7H117.6V76.1h92.2C219.7,76.1,227.9,82.8,227.9,90.8Z"/><text class="cls-6" transform="translate(140.87 190.3) scale(0.93 1)">EME 999</text><line class="cls-7" x1="71.5" y1="54.3" x2="260" y2="280.2"/><line class="cls-8" x1="83.8" y1="58.4" x2="254.1" y2="260.1"/><line class="cls-8" x1="73.2" y1="259.9" x2="242.2" y2="54"/><g class="cls-9"><path d="M92.4,292.2h2.3v16.1c0,2.9-.5,5-1.6,6.3a5.55,5.55,0,0,1-4.5,1.9c-2.3,0-3.9-.6-4.9-1.9a9.33,9.33,0,0,1-1.6-5.8V292.1h2.4v15.3a25.42,25.42,0,0,0,.2,3.1,6.49,6.49,0,0,0,.7,2.1,2.77,2.77,0,0,0,1.3,1.1,5,5,0,0,0,1.9.3,2.87,2.87,0,0,0,2.9-1.6,12.86,12.86,0,0,0,.8-5.1V292.2Z"/><path d="M102.2,301l-1.4-3.8h-.1l.4,3.8v15.3H98.8V291.8h1.4l8.3,15.6,1.3,3.6h.1l-.4-3.6V292.2h2.3v24.5h-1.5Z"/><path d="M129.9,300.5l.3-3.6H130l-1,3.4-4.5,10.5h-.8L119,300.3l-1-3.4h-.1l.4,3.6v15.8H116V292.2h2l5.4,11.8.8,2.8h.1l.8-2.9,5.1-11.8h2.1v24.1h-2.4V300.5Z"/></g><g class="cls-9"><path d="M135.7,304.3q0-6.15,1.8-9.3a6.08,6.08,0,0,1,5.6-3.2,6.16,6.16,0,0,1,3.4.9,7,7,0,0,1,2.3,2.5,13.74,13.74,0,0,1,1.3,3.9,27.47,27.47,0,0,1,.4,5.2q0,6.15-1.8,9.3a6.08,6.08,0,0,1-5.6,3.2,6.16,6.16,0,0,1-3.4-.9,7,7,0,0,1-2.3-2.5,13.74,13.74,0,0,1-1.3-3.9A27.47,27.47,0,0,1,135.7,304.3Zm2.5,0a24.66,24.66,0,0,0,.3,3.9,21.31,21.31,0,0,0,.8,3.2,5.07,5.07,0,0,0,1.5,2.2,3.49,3.49,0,0,0,2.2.8,3.8,3.8,0,0,0,3.6-2.5,18.48,18.48,0,0,0,1.2-7.6,23.4,23.4,0,0,0-.3-3.8,21.31,21.31,0,0,0-.8-3.2,5.07,5.07,0,0,0-1.5-2.2,3.09,3.09,0,0,0-2.3-.8,3.8,3.8,0,0,0-3.6,2.5C138.5,298.5,138.2,300.8,138.2,304.3Z"/></g><g class="cls-9"><path d="M164.6,294.6h-5.5v21.7h-2.4V294.6h-5.5v-2.4h13.4Z"/><path d="M167.5,292.2h2.4v24.1h-2.4Z"/></g><g class="cls-9"><path d="M179.4,308.7l.6,3.7h.1l.6-3.7,4.2-16.4h2.5l-6.8,24.5h-1.3l-6.9-24.5h2.7Z"/></g><g class="cls-9"><path d="M196.6,309.5h-6.3l-1.8,6.7h-2.4l6.7-24.5h1.3l6.7,24.5h-2.5Zm-5.6-2.2h5.1l-1.9-7.5-.6-3.6h-.1l-.6,3.7Z"/></g><g class="cls-9"><path d="M213.2,294.6h-5.5v21.7h-2.4V294.6h-5.5v-2.4h13.4Z"/><path d="M215.7,292.2h9.9v2.4h-7.5v8.2H225v2.4h-6.9V314h7.7v2.4H215.7V292.2Z"/><path d="M229.4,292.2c.3-.1.7-.1,1.1-.2s.8-.1,1.3-.1h2.5a8.16,8.16,0,0,1,4,.9,7.19,7.19,0,0,1,2.7,2.5,10.8,10.8,0,0,1,1.5,3.8,26,26,0,0,1,.4,5,23.52,23.52,0,0,1-.4,4.7,12.76,12.76,0,0,1-1.5,4,9,9,0,0,1-2.7,2.8,7.69,7.69,0,0,1-4.2,1H233a5.7,5.7,0,0,1-1.3-.1c-.5,0-.9-.1-1.3-.1s-.7-.1-.9-.1V292.2Zm5,2.1H233a1.7,1.7,0,0,0-.7.1.75.75,0,0,0-.5.1v19.6a1.34,1.34,0,0,1,.5.1,1.63,1.63,0,0,0,.7,0h1.2a5,5,0,0,0,2.9-.8,6.74,6.74,0,0,0,1.9-2.2,10,10,0,0,0,1-3.2,23.76,23.76,0,0,0,.3-3.9,21.86,21.86,0,0,0-.3-3.6,12.61,12.61,0,0,0-.9-3.1,5.49,5.49,0,0,0-1.8-2.2A4.37,4.37,0,0,0,234.4,294.3Z"/></g></svg>