<svg id="Layer_1" data-name="Layer 1" xmlns="http://www.w3.org/2000/svg" viewBox="0 0 275.84 253.05"><defs><style>.cls-1{fill:#f8f1e1;stroke:#653c19;stroke-miterlimit:10;}.cls-2{fill:#1a0100;}.cls-3{fill:#ad6c55;}.cls-4{font-size:22px;font-family:Avenir-Roman, Avenir;}</style></defs><path class="cls-1" d="M177,154.93c2,20.7,5.28,55.52,33.73,76.82,4.77,3.58,22.17,15.7,45.86,15,38.39-1.2,64.65-35.9,67.58-39.88,16.21-22.06,21.87-49,33.8-48.62a21.71,21.71,0,0,1,11.26,4.16c3.23,2.52,4.6,5.33,6.84,9.55,7,13.24,10.54,19.86,12.87,19.53,2.59-.36,1.31-7.74,5.23-17.86,5.64-14.55,14.92-16.51,15.69-27,.38-5.12-1.51-8.9-4.42-14.54C393.28,108.56,369.57,99,372,92.57c.8-2.13,3.77-2,4-4.16.42-3.52-7.27-7-13.28-10C335.92,64.93,332.83,54.5,320.11,56c-4.59.54-7.32,2.27-12.87,1.25-6.32-1.17-7.3-4.25-14.08-7.06-7.72-3.21-9.69-.56-20.92-2.91-11.82-2.48-10.62-5.62-17.3-5.82-13.14-.4-17.43,11.76-27.76,9.56-7.2-1.54-7.67-8-14.48-7.9-4.11.06-7.76,2.81-14.89,8.31-5.06,3.9-7.18,6.2-9.65,8.31-11.19,9.56-19,6.37-31.78,13.71-3.94,2.26-13.39,7.68-18.11,17.45-9.61,19.94,4.27,50.15,14.09,50.28,7.52.1,9.88-17.55,31.78-36.57,3.78-3.28,8.34-6.78,8.85-6.23.7.76-6,7.55-10.06,14.13C174.44,126.24,175.72,141.8,177,154.93Z" transform="translate(-134.53 -40.95)"/><path d="M209.42,132.44a5.9,5.9,0,0,1,.49-2.77,7.16,7.16,0,0,1,1.82-2.14A20.25,20.25,0,0,1,214.9,125a16.71,16.71,0,0,1,3.21-1.63,12.45,12.45,0,0,1,5.53-.9,8.5,8.5,0,0,1,5.11,1.76,11.6,11.6,0,0,1,2.3,2.92c.12.2.25.44.78,1.57a40.92,40.92,0,0,1,1.92,4.42,8.21,8.21,0,0,1,.46,4c-.66,3.06-4.42,4.53-6.61,5.38s-5.32,2.09-9.17.95a13.11,13.11,0,0,1-7.23-5.7A10.63,10.63,0,0,1,209.42,132.44Z" transform="translate(-134.53 -40.95)"/><path class="cls-2" d="M252.13,168.82a14.88,14.88,0,0,0-10.76,4.9c-1.5,1.63-4.55,4.71-4.5,9,0,1.83.6,3.6,2.28,6.24,2.25,3.52,8.35,13.08,16.94,12.16,4.28-.46,7.88-3.39,9.27-4.52a16.87,16.87,0,0,0,2.9-2.91c.92-1.21,3.74-4.93,3.63-9.39-.13-4.87-3.7-8.08-6.13-10.27a18.19,18.19,0,0,0-9.63-4.59" transform="translate(-134.53 -40.95)"/><path d="M304,135.42a6,6,0,0,0-.49-2.77,7.16,7.16,0,0,0-1.82-2.14,20.25,20.25,0,0,0-3.17-2.51,16.15,16.15,0,0,0-3.21-1.63,12.45,12.45,0,0,0-5.53-.9,8.5,8.5,0,0,0-5.11,1.76,11.6,11.6,0,0,0-2.3,2.92,16.23,16.23,0,0,0-.78,1.57,40,40,0,0,0-1.92,4.42,8.2,8.2,0,0,0-.46,4c.66,3.06,4.42,4.52,6.61,5.38s5.32,2.09,9.17.94a13,13,0,0,0,7.23-5.7A10.64,10.64,0,0,0,304,135.42Z" transform="translate(-134.53 -40.95)"/><path class="cls-3" d="M160.27,117a47.88,47.88,0,0,1,2.08-4.75c3.49-7.29,6.76-14.13,13.46-17.76a13.57,13.57,0,0,1,7.4-2c5.57.29,10.73,4.73,10.26,5.92-.05.13-.15.16-.59.4s-1.33.85-3,2a28.42,28.42,0,0,0-2.79,2.3c-1.86,1.64-4.4,3.86-7.64,6.69-1.13,1.14-2.08,2.14-2.82,2.93a41,41,0,0,0-3.23,3.73c-.53.72-.89,1.28-1.06,1.53-9.89,14.54-12.64,19.79-14.19,19.24C156.09,136.51,156.93,125.91,160.27,117Z" transform="translate(-134.53 -40.95)"/><path class="cls-3" d="M347.9,120.42c-3.9,6.16,5.5,12.27,4.72,28.18-.22,4.47-1.38,8.91,1.05,10.72,2.09,1.56,4.44-.59,8.81.48,4,1,6.53,3.88,8.93,6.67,5,5.82,6.17,11.26,6.92,11,1.25-.36-5-14.9-.55-23.4a43.76,43.76,0,0,0,3.44-9.74,11.72,11.72,0,0,0,.28-3.16c-.21-8-5.64-14-8.5-17.09-3.31-3.63-6.17-6.76-11.08-7.74C357.68,115.53,350.67,116.05,347.9,120.42Z" transform="translate(-134.53 -40.95)"/><path class="cls-2" d="M270.57,217.22a37.82,37.82,0,0,1-14,2.21c-2.55-.08-7.87-1.9-18.5-5.53-1.88-.65-5.18-1.82-6.25-4.65-.32-.86-.51-2.05-.21-2.2s1.39,2.17,3.34,4c2.9,2.66,4.95,1.15,11.66,3.72,2.78,1.07,3.33,1.67,5.84,2.25a22.08,22.08,0,0,0,6.12.51" transform="translate(-134.53 -40.95)"/><path class="cls-3" d="M199.47,107.42" transform="translate(-134.53 -40.95)"/><path class="cls-3" d="M356.53,234.17" transform="translate(-134.53 -40.95)"/><text class="cls-4" transform="translate(63.19 231.03)">dog momma</text></svg>