<svg id="Layer_1" data-name="Layer 1" xmlns="http://www.w3.org/2000/svg" xmlns:xlink="http://www.w3.org/1999/xlink" viewBox="0 0 1429.59 2061.85"><defs><style>.cls-1,.cls-4{fill:#f2c0a8;}.cls-2{fill:#d6d1d3;}.cls-3{fill:#0b2041;}.cls-4{stroke:#a58a70;stroke-miterlimit:10;stroke-width:2px;}.cls-5{fill:#231f20;}.cls-6{fill:#e2c29b;}.cls-7{fill:#ffcb61;}.cls-8{fill:#7b5848;}.cls-9{fill:#e7c093;}.cls-10{fill:#546bb2;}.cls-11{fill:#fff;}.cls-12{fill:#52361b;}.cls-13{fill:#e79d9a;}.cls-14{fill:#f69999;}.cls-15{fill:url(#linear-gradient);}.cls-16{fill:#c48a70;}</style><linearGradient id="linear-gradient" x1="-1415.99" y1="-936.11" x2="-1415.99" y2="-936.11" gradientUnits="userSpaceOnUse"><stop offset="0" stop-color="#fff"/><stop offset="1"/></linearGradient></defs><polyline id="neck" class="cls-1" points="865.66 950.53 378.87 981.75 397.63 699.02 666.31 704.82 878.41 842.84"/><path class="cls-2" d="M-1323.86-501.92q-12.95,7.44-26.71,14.88-13.56,7.32-26.71,14l-54.85,16.58-52,9.21h-56.57l-61.8-3.46-62.57-4-210.52,45.26-109.69,60.6-44.13,88.62-12.48,140.92V86l-11.3,262-14,130.39,5.33-42.71c-10.55,21.1-18.88,87.87-13.84,110.91l8.51,38.9-13,77.79L-650.54,644l-70.83-128.35L-805.19,141l-75-373.71a142.64,142.64,0,0,0-4.86-18l-40.27-118.37a143.91,143.91,0,0,0-63.44-77.81l-50.76-29.79L-1132.26-552q-13.35-27.74-26.69-55.48" transform="translate(2080.12 1398.59)"/><path class="cls-3" d="M-964.71,637.67l-30.86-108.75a143.91,143.91,0,0,0-14.3-33.51l-48.79-83.23V330.46a143.68,143.68,0,0,0-3.37-30.94l-31.77-144.44a145.06,145.06,0,0,0-6.6-21.69l-40.12-102.16-42.85-109-20.5-58.41-13.67-86.43q-5.94-50.94-11.89-101.89l-16.44-72.17-12.66-55.54q-13.65-36.93-27.28-73.85L-1299.07-592l-59.56,11.51,45.28,112.86,19.64,70.27,21.92,113q6.81,53.72,13.63,107.43l-4.26,20.17-515,36.93-64.15,42-17,102.27-14.91,93.45v55.88a144.06,144.06,0,0,0,9.9,52.47l22.59,57.73a144.3,144.3,0,0,1,8.26,30.76l16.74,109.8,11.16,234.09,853.35-9.7" transform="translate(2080.12 1398.59)"/><path class="cls-4" d="M-1626.63-660.8a323.92,323.92,0,0,0,24.52,32.47c5,5.84,8.87,9.85,34.56,34.61,30.78,29.66,36.14,34.37,44.79,40.3a194.82,194.82,0,0,0,31.51,17.51,113.69,113.69,0,0,0,33,11.15,113.3,113.3,0,0,0,29.34,1.23,160.45,160.45,0,0,0,29.37-5.24c16.92-4.68,28.87-11,37.76-15.73,8.32-4.46,21.09-11.28,31.28-20.49,1.29-1.16,6.6-6,14-12.41q3.88-3.37,7.91-6.76c3.18-2.67,6.36-5.29,9.51-7.85l139.82,30.62,24-537.61-189.19-158-158-10.78-152.06,148.47-47.89,276.59,40.71,138.89Z" transform="translate(2080.12 1398.59)"/><path class="cls-5" d="M-1198.46-1307.68l0,.06,0,0h0l28,43.76h0l24.51,56h0l21,63a142.86,142.86,0,0,1,5.35,21.38l12.15,71.37h0v186.6a145.74,145.74,0,0,1-.82,15.35l-13.13,122.51c-1.2,11.21-2.08,23.52-.64,34.7l12.34,87.17a144,144,0,0,0,8.67,34l12.13,31.07a110.89,110.89,0,0,0,28.7,41.74l25.6,25.09-72.09-15.69q-20-8.1-41.42-16-23.61-8.69-46.19-16.11a256.18,256.18,0,0,1-27.07-3.3,256.34,256.34,0,0,1-26.13-6l-47.24-29.24h0l-28.69-10.27,53.19-49.25h0q11.23-14.64,22.45-29.29l17.81-23.22h0l10.5-22.76,14-33.25,18.15-48a143.66,143.66,0,0,0,8.39-34.61l2.63-23.06a358,358,0,0,0,2.33-40.88v-74l1.75-42v-26.55a143.84,143.84,0,0,0-7.92-47.1l-7.83-22.63h0c-1.56-3.94-3.94-9.73-7.18-16.63-1.62-3.47-3-6.16-7.55-15.1-2.53-5-15.54-24.79-18.42-27.67l-15.1-15.1a129.93,129.93,0,0,0-22.42-14.19c-14.64-7.53-19.84-7.13-39.8-15.43-19.3-8-19.77-10.61-32.51-14.77a120,120,0,0,0-36.59-5.85,345.63,345.63,0,0,0-88.93,12c-11.34,3.08-21.9,6.57-31.65,10.27l-24.8,13.68a144.66,144.66,0,0,0-46.23,31.93c-23.32,24.29-30.84,50.26-43.11,94.63-17.63,63.79-28.76,104.67-34.78,126.84-2.36,29.25-3.76,60.25-3.8,92.82q0,20.46.63,40l4.14,57.94h0l22.75,175h0l15.34,216.34a216.66,216.66,0,0,1-.49,36.38l-4.07,41.37a216.07,216.07,0,0,1-20.67,73.26l-.07.14a121,121,0,0,1-36.23,43.92L-1678-131.3h0c17.06-17.12,41.6-46.32,56.58-88.33,3.68-10.31,12.35-37,11.94-118.7-.11-23.47-1.09-74-11.94-162.74-4-33-10.22-77.72-19.79-130.85a609.34,609.34,0,0,1,.53,111.79c-7.88,89.63-34.63,162.7-49.75,203.21-.19.5-.34.9-.44,1.18-1.49,3.94-3.74,9.47-30.48,78.34-18.61,47.91-17.24,46-22.09,57.43C-1765-129.23-1776.27-102.66-1802-78.6c-6.52,6.1-4.21,2.3-47,35.05L-1896.78-7h0L-1937,14h0l-50.75,10.5h0l45.51-28h0l23.18-17.2a216,216,0,0,0,52.22-55.47l.08-.12a41.79,41.79,0,0,0,6.35-16.85L-1839-241.57h0l3.5-56,10.5-115.53h0l-54.26,26.26h0l-37.45,12A215.39,215.39,0,0,0-1959-356.21c-6,3.47-10.8,6.65-12.62,7.88a214.54,214.54,0,0,0-24.72,19.38l-.1.09a20.79,20.79,0,0,0-5.38,7.8l-21,53.23h0l-17.51,115.52h0l-.72-1.6c-9.93-22.05,2.47-115.67,2.47-115.67l9.38-27.2a144.19,144.19,0,0,1,23.69-43l21.36-18.46A426,426,0,0,0-1956-392.65c7.88-10.72,14.74-21.12,20.72-31h0l24.5-43.76,47.26-78.77h0l29.76-80.52h0l52.51-171.54h0L-1748-971.49l14-94.52h0l19.84-73.67a143.56,143.56,0,0,1,13.46-33l31.47-56.1h0l45.51-61.26h0l56-54.27h0l49-29.75h0l42.42-15.63a144,144,0,0,1,49.78-8.88h17.77a144,144,0,0,1,54.52,10.72l12.3,5h0l24.51,17.5.13.09a81.34,81.34,0,0,0,38.45,14.29l14.39,4.23,14.08,4.69,13.68,4.69,11.73,5.09C-1209.68-1318.11-1198.49-1307.72-1198.46-1307.68Z" transform="translate(2080.12 1398.59)"/><path id="Hair" class="cls-6" d="M-298.52-1667" transform="translate(2080.12 1398.59)"/><path id="little_part_of_hair" data-name="little part of hair" class="cls-5" d="M-1265.37-532.25a48.77,48.77,0,0,1,18,1.35l-24.6-20.58-30.66-12.79c3.08,2.35,5.39,5.77,9,12.34.29.53-1.25,1.95,0,5.55,1.32,3.79,4.31,14.94,4,23.29,4-1.49,11.92-6,15.93-7.45A47.45,47.45,0,0,1-1265.37-532.25Z" transform="translate(2080.12 1398.59)"/><path class="cls-7" d="M-1512.35,185.79c1.9,3.53,3.81,7.2,5.7,11s3.55,7.31,5.18,10.85l2,7.83a144.18,144.18,0,0,1,4.54,35.86v14.23a48.18,48.18,0,0,1-2.93,13.56,48.18,48.18,0,0,1-6.7,12.17l-4.51,3.26c-3.2,1.5-13,6-14.21,4.12-1.06-1.62,4.85-7.34,7.77-10l4.19-7.62a19.42,19.42,0,0,0,.82-3.85,11.89,11.89,0,0,0-.51-5.47,2.86,2.86,0,0,0-1.08-1.55,2.77,2.77,0,0,0-2-.31l-2.4,1.94a35.88,35.88,0,0,0-6,9.17c-2,4.58-2.08,7.37-4.58,12.35a38.56,38.56,0,0,1-4.27,6.68l-10.33,5.59q-12.45,5.44-14,3.26c-.49-.69-.15-2,1-3.8l7.54-16.91,1.61-3.93c0-.2.89-3.21-.37-4.22s-4.15-.11-6.66,2.93a21.13,21.13,0,0,0-3.35,7.48c-.13.55-.22,1.1-.3,1.62a20.54,20.54,0,0,1-5,11.81,20.21,20.21,0,0,1-7.88,5.48L-1582,312c-3.27.4-22.72,2.63-38.65-1.64-7.28-1.95-10.93-2.93-14.41-5.1-4.44-2.77-7.79-6.32-10.27-5.18-1.27.58-1.8,2.16-2,3.43l7.19,4.79L-1630,312q-1.36,2.07-2.74,4.12l-15.08,9.79a4.55,4.55,0,0,1-1.1.9,4.81,4.81,0,0,1-1.33.53,19,19,0,0,1-4.87,2.46c-2,.65-6,2-9.7.15a9,9,0,0,1-2.08-1.41l-13.25-15.77a5.23,5.23,0,0,1-.74-1.22l-9.73-23.63a4.66,4.66,0,0,1-.35-1.77V261.28a4.65,4.65,0,0,1,1.81-3.67l6.75-5.23A144.09,144.09,0,0,1-1651.31,234l15.35-6.62a5,5,0,0,0,1-.55l29-21.72.39-.26,25.14-17.86a144,144,0,0,1,38-16h9.67a28.09,28.09,0,0,1,4.24,1.5,28.07,28.07,0,0,1,4.13,2.26Z" transform="translate(2080.12 1398.59)"/><path class="cls-7" d="M-1615.86,360.58a15,15,0,0,0,7.85,6.3c2.35.72,4.3.53,8.64,0,7.43-.91,11.15-1.36,12.7-1.67,5.84-1.18,2.55-.18,24.45-3.51,0,0,15.06-2.95,34.77-7.13,5.1-1.08,11.86-2.6,13.6-7.34,1.07-2.91-.06-6.18-1.51-10.37a59,59,0,0,0-5.18-10.37c-2.41-4.13-2.56-3.74-3-5.18-.8-2.5-.83-5.3-.86-10.8,0-2.87.06-3.76-.65-4.32-.89-.7-2.46-.42-7.12,1.73a66.27,66.27,0,0,0-7.56,3.89c-3.78,2.24-7.2,3.07-14,4.75-10.49,2.57-19.37,2.93-27.43,3.24-8.91.34-16.31,0-23.84-.33-3.73-.17-5.6-.25-6.58-.41-4.83-.79-7.47-2.34-9.1-1-.69.57-.87,1.39-1.08,2.81-.7,4.76-1.05,7.14-.44,11.44.83,5.75,1.24,8.63,2.71,10.07,5.68,5.59,22.33-1.21,22.13-2.29-.11-.6-5.72-.82-10.45,1.62a18.1,18.1,0,0,0-8.34,9.83,16.83,16.83,0,0,0-.77,5.85" transform="translate(2080.12 1398.59)"/><path id="C" class="cls-7" d="M-1692.69,485.41c-3.69-8.35-4.86-17.31-4.78-33.42,0-9.86.53-15.84,4-21.73,2-3.38,3.89-4.93,5.8-5.79,5.64-2.54,11.77.78,12.31,1.09a32.59,32.59,0,0,1,6.88,5.79c2,1.56,4.21,2,5.43,1.09s1.13-2.68,1.09-4c0-.95-.23-4-3.26-8.33a26.64,26.64,0,0,0-6.52-6.52c-1.56-1.07-10.15-7-21-4.7-9.27,2-14.35,8.66-17.14,12.33-4.67,6.18-6.15,12.09-7.48,17.64-.66,2.78-3.78,16.61.35,34.85,2,8.75,4,17.67,11.59,25.35,2.72,2.76,7.2,7.17,14.13,8,6.54.76,11.71-2.12,13.76-3.26a21.51,21.51,0,0,0,9.41-9c1.23-2.44,1.38-5.36,1.62-7.46a38.64,38.64,0,0,0,.19-5.94c-.11-4.8-.19-7.54-1.81-8.33a2.59,2.59,0,0,0-2.43.1c-1.12.71-1.17,2.36-1.28,3.54a26,26,0,0,1-3.26,10.36c-2.46,3.8-8.27,6.09-12.34,4.51C-1690.28,490.41-1691.7,487.66-1692.69,485.41Z" transform="translate(2080.12 1398.59)"/><path id="H" class="cls-7" d="M-1661.53,369.66c.68,8.89,1.67,21.79,2.94,37.41,4.13,50.84,3.1,30.9,4,44.36a278.24,278.24,0,0,0,4.81,34.74s1,4.82,5.08,14.7c3.34,8.19,4.94,9.87,6.94,10.69,3.59,1.46,8.2-.11,11-2.68a12.07,12.07,0,0,0,2.94-4.54c2.28-5.59,1.37-10.89,1.07-13.09-.11-.76.46-7.9,1.6-22.18,1-12.11,1.66-17.71,3.21-24.32,1-4.18,2.81-12.14,4.54-12s2.67,9.61,2.94,12.82c.73,8.52-.34,10.78.27,19.24a98.69,98.69,0,0,0,1.87,12.83c1.66,8.6,2.8,14.54,6.14,21.38,2.83,5.79,6,12,12.56,14.43,2.74,1,7.47,1.84,9.09-.27s-1.23-6.08-4.28-13.09a94.43,94.43,0,0,1-6.41-26.19c-.6-6.9.61-5.13.54-18.44-.09-15-1.66-20.71-2.68-23.78-1.94-5.86-3.56-10.48-8.28-13.63-.34-.22-7.3-4.72-14.7-2.14-6.84,2.39-9.66,9.31-12.29,15.77-2.45,6-3.26,11.74-4.54,20.84-1.26,8.92-1.34,9.62-1.34,9.62-.32,2.88-.36,3.93-.54,3.93-.59,0-1.4-10.91-2.67-24.24-2-21.57-2.36-18.18-3.2-30.19,0-.57-1.1-10-3.21-28.86-.65-5.78-1.42-11.94-6.15-15.23a13.05,13.05,0,0,0-7.74-2.14" transform="translate(2080.12 1398.59)"/><path id="U" class="cls-7" d="M-1574.68,414a7.21,7.21,0,0,0-4.54,1.87c-2.19,2.19-1.72,5.55-1.61,9.35.16,5.17.07,10.34.27,15.5.4,10.37,0,10.48.53,16.3a84.18,84.18,0,0,0,1.87,12.3c1,4.32,2,8.4,4.55,13.09,2.78,5.1,5,9.25,9.88,10.95,4.17,1.47,9.64.93,13.1-2.13,2.08-1.85,3-5.24,4.81-12,1.1-4.12,1.22-5.76,2.67-11,1.38-4.92,2.26-8.1,2.94-8s.84,2.63,1.07,17.1c.11,7.3.12,11.22.53,17.1.62,8.77,1.41,11.52,2.94,14.17,1.18,2,3.78,6.52,8.55,7.21.21,0,4.68.61,7.75-2.4a9.23,9.23,0,0,0,2.41-4.55c1.87-7.73-.12-16.43-.27-17.1-.76-3.33-1-10.24-1.6-24-.29-7.14-.46-10.71-.3-15.57,0,0,.54-16-1.47-27a7.15,7.15,0,0,0-1.71-3.67,7.25,7.25,0,0,0-6.41-2.13c-2.41.42-4,2.07-5.34,3.74a62.25,62.25,0,0,0-8.56,13.62,119.12,119.12,0,0,0-5.61,14.17,58.12,58.12,0,0,0-2.13,13.63c-.48,6.59,0,10.58-2.14,16.56-.67,1.85-1.88,5.16-3.21,5.08-2.19-.13-3.47-10.69-3.47-10.69s0-13.8-1.13-28.32c-1-11.73-1.81-9.65-2.35-17.64a54,54,0,0,0-1.72-9c-1-3.83-1.85-5.7-3.62-6.76a6.5,6.5,0,0,0-3.74-.8" transform="translate(2080.12 1398.59)"/><path id="B" class="cls-7" d="M-1498.93,503.59c0,1.71.24,7,4,10.09,6,4.94,15.7.21,17.45-.64,2.43-1.18,3.22-2.07,10.92-9.43,11.41-10.92,11.52-10.75,13.74-13.31a87,87,0,0,0,10.4-14.88,84.7,84.7,0,0,0,9.45-29.78c1.41-9.51,2.06-14.41-.81-19.69a21.53,21.53,0,0,0-11-9.44,19.43,19.43,0,0,0-9.77-.64c-10.43,2.06-16.11,12.76-18.08,16.49-3,5.63-4.83,12.25-6.89,19.69-1.45,5.22-2.13,8.69-2.88,8.64-1.07-.08-1.28-7.29-1.6-14.89-1.19-27.86-2.22-19.06-3.52-46.1-.39-8-.08-14.08-3.68-21.13-.46-.89-5.82-11.18-10.73-10.25-3.12.6-4.66,5.48-5.65,8.6s-1.2,5.84-.91,16.22c.19,6.78.46,12.4.64,16,.09,1.8.49,9.91.63,12.54.58,10.22,2.64,31.05,5.93,57.9" transform="translate(2080.12 1398.59)"/><path id="inside_B" data-name="inside B" class="cls-3" d="M-1477.59,492a124.59,124.59,0,0,1,4.42-24.7,135.09,135.09,0,0,1,7.54-19.76c3.3-7.39,5.51-11.05,8.58-14.56,2.24-2.56,7.58-8.65,10.92-7.28,2.84,1.17,2.86,7.16,2.86,9.36,0,1.92-.21,6.16-4.68,15.6a106.76,106.76,0,0,1-7.54,13.26,133.07,133.07,0,0,1-10.4,13.78" transform="translate(2080.12 1398.59)"/><path class="cls-7" d="M-1376.19,438.23c2.31-2.83-1.53-10-4.63-13.91-1.8-2.27-7.57-9.57-17.52-10a21.55,21.55,0,0,0-14.42,4.63c-6,4.88-7.14,11.59-7.73,14.94a30.15,30.15,0,0,0,2.58,18c3.06,6.36,5.61,5.72,12.1,14.43,6.77,9.07,8.41,15.13,9,18,.8,3.84,1.61,8-.78,11.85-.3.48-3.32,5.16-8.5,5.15a10.28,10.28,0,0,1-7.36-3.61,12,12,0,0,1-2.59-5,17.69,17.69,0,0,1-.35-5.05c-.26-5.87-7.38-12-10.3-10.82-1.48.6-1.8,3.14-2.32,8.24-.38,3.71-.66,6.43,0,10.05a28.56,28.56,0,0,0,5.92,12.62,29.67,29.67,0,0,0,13.66,9.27c4,1.37,12,4.15,19.57.26,7-3.62,9.39-10.86,11.08-16,3.61-11,1.18-20.56,0-25a50.26,50.26,0,0,0-9.27-18.28c-1.79-2.2-3.39-3.73-7.22-8.5-6.25-7.8-6.75-9.64-7-10.82-.84-5,1.48-11.94,6.18-13.4,5.1-1.58,12,3.58,13.65,8.76.66,2.1.49,4.38,2.06,5.15A3.7,3.7,0,0,0-1376.19,438.23Z" transform="translate(2080.12 1398.59)"/><path class="cls-7" d="M-1347.88,408.67a8.11,8.11,0,0,0-5.91,1.44c-1.07.82-3.43,2.9-2,15,2,17,3.25,25.3,3.25,25.3,1.9,11.18,2.89,16.89,5.26,22.54,3.71,8.83,7.11,11.51,10.27,12.53a10.88,10.88,0,0,0,6.77,0c1.55-.55,4.79-2.16,8.6-11.39,2.22-5.37,2.09-7.18,4.61-16.67,1.11-4.2,2.26-7.89,4.57-15.27,4.88-15.62,5.68-16.08,6-16,1.06.16.87,6,.86,12.39,0,13.89.89,8.28,2,38.32,0,0,.45,12.3-.37,30.85a40.15,40.15,0,0,1-3.61,16.05,34.56,34.56,0,0,1-6.59,9.45c-2.77,2.8-5.07,5.13-9,6.22a17,17,0,0,1-11.57-1.12c-3.86-1.81-5.9-4.55-8.33-7.84s-4.25-5.72-4.85-9.2c-1-5.52,1.92-7.9,0-12.82-.39-1-1.53-3.9-3.61-4.23-2.58-.4-5.07,3.4-6.84,6.1a28.91,28.91,0,0,0-4.73,11.69,31,31,0,0,0,1.37,14.93c4.14,12.53,14.58,18.88,17.54,20.53,3.29,1.84,14.9,7.7,28.11,4,15.67-4.41,22.77-19.27,26.87-27.87,6.46-13.52,7-26.49,7.34-36.32.3-7.78-.16-16.92-.5-23.39-.26-5.14-.59-9.23-1.24-17.42-.9-11.26-1.37-17-2.29-22.9-.6-3.8-1.59-8-3.56-16.41-2.44-10.41-3.53-13.58-6.22-14.68-.76-.31-3.32-1.12-8.46,2-10.87,6.61-15,19.76-17.79,29-5.13,17.07-7.7,25.6-8.33,29.86-.1.7-.46,3.23-1.21,3.29s-1.71-2.65-2.65-6.28a121,121,0,0,1-3.11-17.91c-.83-7.67-1.28-12.92-2.36-18.54-.79-4.12-.75-2.34-1.87-7.46-.58-2.69-.75-3.92-1.86-5.23A7.77,7.77,0,0,0-1347.88,408.67Z" transform="translate(2080.12 1398.59)"/><path class="cls-7" d="M-1272.52,400.86a26.84,26.84,0,0,0,8-9.05,28.06,28.06,0,0,0,3.17-13.09c.16-4.54.24-8.15-2.11-11.75-.5-.76-3.43-5.23-8.67-5.58a10.42,10.42,0,0,0-7.12,2.31,11.08,11.08,0,0,0-3.66,7.12c-.31,1.76-.94,5.35,1.15,7.51a7.11,7.11,0,0,0,3.85,1.74c3.65.82,5.22-.54,6.55.57s1,3.17.77,5.4a13.66,13.66,0,0,1-2.89,7.51c-1.88,2.25-3.52,2.46-3.85,4.23a5,5,0,0,0,1.35,3.85" transform="translate(2080.12 1398.59)"/><path class="cls-7" d="M-1205.85,410.12c.8-1.12.21-2.86-.37-4.21-5.55-12.84-12.46-16.77-12.46-16.77-2.87-1.63-9.44-5.36-16.64-2.94-7.55,2.52-10.54,10-11.79,13.17-3.27,8.2-1.45,15.62-.69,18.55,1.67,6.43,4.93,10.82,8,14.91,5.82,7.81,8.42,7.47,11.1,13.52,1.74,3.94,2,7.24,2.6,13.52.75,8.48-.63,10.4-1.22,11.09a9.08,9.08,0,0,1-8.49,2.78c-5.09-1.05-7.41-6.7-8.15-8.5-1.82-4.42-.2-6.44-2.6-10.23-.51-.8-2.76-4.35-5.38-4.08-2.45.26-3.86,3.71-4.5,5.3-3,7.31-.49,14.65.17,16.64A28,28,0,0,0-1244,488.12c2.16,1.24,12.54,6.81,22.36,2.08,8.69-4.17,11.17-13.61,12.83-19.93.77-2.92,3.8-15.11-1.73-27.56-2.53-5.71-6.72-11-15.08-21.67-3.57-4.53-6.39-7.8-6.59-12.83-.15-3.57,1-9.52,5.37-11.44A9,9,0,0,1-1218,398c3.52,2.91,3.13,8.38,6.76,11.79a4.44,4.44,0,0,0,3,1.39A3.21,3.21,0,0,0-1205.85,410.12Z" transform="translate(2080.12 1398.59)"/><path class="cls-8" d="M-1476.51-1026.21a161.17,161.17,0,0,0-42.58-4.82,162.08,162.08,0,0,0-57.84,12c-4.48,3.46-9.87,8.16-8.83,10.45,1.84,4.07,22.51-7.25,53-6.63,10.49.21,26.17.53,41.57,8.4,3.81,2,9.93,5.11,22,11.88,13.71,7.73,20.57,11.59,26.47,15.22,13.76,8.48,24.61,16.19,28.51,13a13.56,13.56,0,0,0,2.22-3.14,40.15,40.15,0,0,0,3.81-7.58c.89-2.47,1.43-4,1.34-6-.22-4.77-3.77-8.19-5.36-9.71C-1418.11-998.72-1442.57-1011.52-1476.51-1026.21Z" transform="translate(2080.12 1398.59)"/><path class="cls-9" d="M-1406.93-965.72" transform="translate(2080.12 1398.59)"/><path class="cls-9" d="M-1389.48-945.7" transform="translate(2080.12 1398.59)"/><path class="cls-10" d="M-985.73-935.46" transform="translate(2080.12 1398.59)"/><path id="eyeleft" d="M-1436.29-913.42a75.92,75.92,0,0,0-27.2-36.76c-4.21-3-21.9-15.73-44.11-14-11.89.94-12.07,5-27.2,6.61-19.6,2.09-33.83-3.18-34.55-.73-.54,1.8,6.94,5.63,11,7.35,8.13,3.42,15.45,3.8,21,4,10.36.45,10.65-1.31,17.88,0,5.2,1,12.73,3.27,14.18,3.72,3.1.95,4.61,1.51,5.07,1.69,5.29,2,7.4,3.53,10.81,5.06,2.94,1.33,6,2,12.16,3.38a154.9,154.9,0,0,0,16,2.68" transform="translate(2080.12 1398.59)"/><path id="eyeleft2" class="cls-11" d="M-1451.91-928.28c-3.37-4-8.12-9.72-13.7-16.3,0,0-2.33-2.75-3.1-2.27s1.22,3.78.08,7.78a7.19,7.19,0,0,1-.51,1.33,8.1,8.1,0,0,1-5.06,3.72" transform="translate(2080.12 1398.59)"/><path class="cls-11" d="M-1487.55-948.88c-.66.91.7,3.78,3,4.81,1.61.7,3.92.63,4.42-.38s-1.21-3.14-2.78-4a5.94,5.94,0,0,0-2.66-.76C-1486.42-949.29-1487.22-949.32-1487.55-948.88Z" transform="translate(2080.12 1398.59)"/><path class="cls-11" d="M-1499.47-945.71a10.46,10.46,0,0,0,2.91-.33c1.23-.31,1.91-.48,2.31-1.07.79-1.19,0-3.45-1.07-3.8-.46-.14-.68.13-2.44,1a23.73,23.73,0,0,0-3.24,1.51,8.53,8.53,0,0,0-2.1,2.08" transform="translate(2080.12 1398.59)"/><path class="cls-8" d="M-1301.77-972.93c-.87.21-12.68,3.19-13.84,10.19-.31,1.89.18,3.84.8,6.27.39,1.49,1.62,7.09,4,9.14,5,4.25,13.9-.36,30.82-6.16a159.83,159.83,0,0,1,29.87-6.64c16.22-1.86,24.34-2.79,32.71,1.43,5,2.52,16.45,10,26.55,18,1.73,1.38,4.74,3.81,6.63,2.85,2.72-1.39,2-9.13,0-14.7-1-2.84-3.35-7.85-13.27-16.12-8.16-6.8-13.76-11.46-22.28-14.22-4.38-1.42-10-2.49-31.29,0-8.94,1-20.93,2.76-35.08,5.69" transform="translate(2080.12 1398.59)"/><path id="righteye" d="M-1321.32-890.48c.28-.47.7-1.16,1.22-2,2.12-3.26,10.26-15,25-21.49,12.69-5.58,23.73-4.35,35.73-3,12.47,1.4,19.8,2.23,25.64,7.91,8.47,8.23,12.27,12.82,12.27,12.82,2.21,2.66,3.7,4.7,6.55,5.45,1.22.33,2.2.28,10.09-.54,4.25-.45,5.09-.55,5.18-.28.21.66-4,3.18-8.73,4.09A22.84,22.84,0,0,1-1219-888c-5.5-1.66-5.33-4-10.93-5.22-.83-.19-3-.45-7.35-1-2.92-.35-4.38-.52-6-.64a65.29,65.29,0,0,0-9,0c-7.87.41-7.61-.28-18.27,0-10.07.27-10.74.9-15.55.27s-6.17-1.56-10.36-1.91a34.38,34.38,0,0,0-14.18,1.91" transform="translate(2080.12 1398.59)"/><path class="cls-11" d="M-1300-901.45c.82-4.51.36-5.7-.21-6-1.49-.67-4.29,4.92-9,7.28-.25.13-.84.41-.82.74,0,.78,3.57,1.18,7.81,1.64,1.87.2,3.42.33,4.52.41" transform="translate(2080.12 1398.59)"/><path class="cls-11" d="M-1262.37-909c1.57,2.16,2.91,4.9,2.27,7.6-.77,3.21-4,5.06-3.5,6,.34.56,1.73.11,3.91-.2a81.07,81.07,0,0,1,9,0c7.15.16,8.16.37,8.43-.21.35-.75-.68-2.61-8.22-7.81" transform="translate(2080.12 1398.59)"/><path class="cls-11" d="M-1272.64-905.15c.46-1.05-1.87-3.57-4.52-4.11-.14,0-2.4-.47-2.88.41s1,2.82,2.67,3.7S-1273-904.25-1272.64-905.15Z" transform="translate(2080.12 1398.59)"/><path class="cls-11" d="M-1290.11-909.3c-1.73.08-2.92,1.11-3,2.1a1.82,1.82,0,0,0,.86,1.53,2.42,2.42,0,0,0,1.82.1,3,3,0,0,0,1.81-.86,3.06,3.06,0,0,0,.67-1.72,4.87,4.87,0,0,0,0-1.44" transform="translate(2080.12 1398.59)"/><path class="cls-12" d="M-1449.28-817.48c-2.92,2.16-20.49,15.33-25,22.4a21.89,21.89,0,0,0-1.34,2.51c-.86,1.89-3.18,7-1.39,12.46a14,14,0,0,0,1.21,2.66c2.18,3.79,5.5,5.87,5.71,5.65s-2.62-2.18-4.41-6.33a17,17,0,0,1-1.42-6.67,18.91,18.91,0,0,1,3.83-10.92c1.89-2.81,3.37-3.85,10.64-9.65,6-4.81,9.05-7.22,11.49-9.36a100.83,100.83,0,0,0,11.07-11.5" transform="translate(2080.12 1398.59)"/><path class="cls-12" d="M-1339.25-811.84c.16-.07.67,1,1.87,2.74,1.58,2.25,2.67,3.68,5.74,8.06,1.38,2,3,4.42,4.94,7.71a92.45,92.45,0,0,1,7.6,16.35s2.81,7.94,1.54,14.51a10.52,10.52,0,0,1-1,3,11.25,11.25,0,0,1-2.47,3.15c-3.52,3.28-8.07,6.13-8.19,6s1.22-.89,4.09-3.35c3.11-2.66,4.66-4,5.29-5.21,1.31-2.51,1.41-5.15,1-8.35-1.75-12.43-8.41-23.46-9.83-25.77-1.64-2.66-2.38-3.5-3.85-5.62a58.84,58.84,0,0,1-4-6.11C-1338.37-808.15-1339.54-811.7-1339.25-811.84Z" transform="translate(2080.12 1398.59)"/><path class="cls-12" d="M-1420.09-760.23a40.52,40.52,0,0,0,4.33,2.54c2.28,1.16,6.25,2.93,6.55,2.43s-3-2.93-6-5.18a59.87,59.87,0,0,0-7.29-5c-3.07-1.61-6-2.22-11.71-3.44-9.81-2.09-11.56-1.22-12.42-.26a3.41,3.41,0,0,0-.9,2.31c.17,2.91,5.58,5.54,13.41,6.71" transform="translate(2080.12 1398.59)"/><path class="cls-12" d="M-1377.43-745.83a55.48,55.48,0,0,1,8-4.72,54.61,54.61,0,0,1,5.36-2.26,48.51,48.51,0,0,1,12.45-2.73c5-.38,8.12-.57,10.62,1.51,1.27,1.07,3,3.25,2.43,4.86-.94,2.5-7.38,3.12-12.45,1.82-4.37-1.12-5.81-3.19-9.71-3a12.16,12.16,0,0,0-5.77,1.82" transform="translate(2080.12 1398.59)"/><path class="cls-13" d="M-1313.32-693.27c-1.43-1.69-4.48,0-12-.34-4-.16-7.49-.8-14.88-2.88-5.44-1.54-9.41-2.85-10.62-3.27-11.82-4.14-25.09-5.77-32.92-6.73-9.62-1.18-32.74-3.31-38.08-4.67l-3.54-.88c-3.18-.78-5.54-1.3-5.94-1.39-6.35-1.43-20.08-6-31.1-8.53a152.56,152.56,0,0,0-17.49-3c-8.69-1.69-16.23-2.71-22.2-3.36a136.06,136.06,0,0,0-26.68.53c-2.89.31-4,.52-4.8,1.44-5.25,5.82,10.11,27.51,16.8,37,17.36,24.5,27.7,39.1,48.48,51.83,11.11,6.81,30.11,18.13,57.11,18.24,7.83,0,33.78-.8,57.59-18.24,6.24-4.57,13.44-13.44,27.83-31.19C-1310.81-687.27-1312.19-691.93-1313.32-693.27Z" transform="translate(2080.12 1398.59)"/><path id="under_teeth" data-name="under teeth" class="cls-5" d="M-1487.4-681a195.26,195.26,0,0,0,47.31,23.26,151.24,151.24,0,0,0,38.59,7.93c11.46.75,29.9,1.36,44.41-8.2,1.87-1.23.47-.53,14.53-11.89,4.11-3.32,7.34-5.9,9.78-10.57,1.48-2.84,3.7-8.43,1.85-10-2.15-1.88-8.8,2.49-10.31,3.44-13.45,8.44-56.08,19.31-86.06,10.27-32-9.64-43.67-38.53-77-46-3.72-.83-15.23-3.39-17.13.25-1.34,2.54,2.58,7,5.5,10.32C-1498.67-692.73-1490.16-682.82-1487.4-681Z" transform="translate(2080.12 1398.59)"/><path id="tetth" class="cls-11" d="M-1500.53-719.06c-2.25,1-3.41,3.69-4.85,7-1,2.37-1.69,4-1.35,6,.1.6.29,1.22,3,5,4,5.71,5.3,6.71,6.56,6.65.48,0,1.37-.23,1.78.25.15.19.18.41.26,1.48.05.76.08,1.13.09,1.39,0,1.9,9.09,9.85,13,7.14,1.83-1.25,1.89-4.33,2.17-4.26s-.63,2.71,0,5.37c.85,3.56,4.07,5.62,5.58,6.57,3.07,1.95,8.86,4.13,12.54,1.8.9-.57,1.79-1.47,2.19-1.2.68.45-1.31,3.17-.39,5.58.42,1.11,1.33,1.8,3.18,2.79,4.91,2.6,8.59,4.55,13.54,4.18,3.09-.24,5.56-1.29,6.57,0,.49.62.2,1.21.4,2,.65,2.48,5.29,2.82,12,4.18,0,0,13,2.67,14.73,1.19a5.18,5.18,0,0,0,1.18-1.37c.25-.49.26-.79.42-.82.38,0,.68,1.74,1.39,2.79,1.13,1.68,3.5,1.77,6.57,2,10,.71,13.08,1.7,14.94-.2.35-.36,2.19-2.39,2.19-2.39a9,9,0,0,0,2.39,1.6c2.93,1.34,5.68.66,10-.4,3-.73,3.72-1.35,4.18-2,.65-.89.77-1.91,1.4-2s.92.95,1.79,1.39c1.42.73,3.42-.65,6.17-2.59,3.09-2.17,4.63-3.29,4.66-4.83,0-1.7-1.68-3.12-1.54-3.24s1,1.57,2.44,1.92c3,.7,6.81-4.21,7.58-5.2.2-.25.34-.44.38-.5.81-1.13,2-3.32,3.41-9.06,1.36-5.38,2.08-8.06,1.79-9-2.32-7.22-35.79,7-71.58.9-22.63-3.83-69.25-19.5-81.49-27.77C-1492.5-717.4-1497-720.59-1500.53-719.06Z" transform="translate(2080.12 1398.59)"/><path class="cls-13" d="M-1525.37-724c.09.91,6.64-.6,15,3.31a31.76,31.76,0,0,1,4.26,2.41c7.17,4.67,25.44,15.1,40.13,19.21,18.11,5.08,11.67,5.84,34.72,12.24,26.74,7.43,45.1,11,59.13,11.58,14.56.61,27.1-4.49,33.11-6.3,8.84-2.67,13.29-3.89,13.36-5.29.31-6.24-49-14.19-93.57-21.37-17.59-2.83-25.79-3.76-39.69-7-8-1.88-12.62-3.3-21.1-4.33-7.45-.9-11.72.22-18.5-2.38-5.48-2.1-4.74-2.88-9.4-4.06C-1512.21-727.1-1525.5-725.29-1525.37-724Z" transform="translate(2080.12 1398.59)"/><path class="cls-5" d="M-1516.21-718.25" transform="translate(2080.12 1398.59)"/><path class="cls-14" d="M-1294.19-667.24" transform="translate(2080.12 1398.59)"/><path class="cls-14" d="M-1424.49-642.92" transform="translate(2080.12 1398.59)"/><path class="cls-11" d="M-1271.47-664.86" transform="translate(2080.12 1398.59)"/><path class="cls-11" d="M-1420.44-632.1" transform="translate(2080.12 1398.59)"/><path class="cls-11" d="M-1424.1-603.36" transform="translate(2080.12 1398.59)"/><path class="cls-11" d="M-1305-624.18" transform="translate(2080.12 1398.59)"/><path class="cls-14" d="M-1332.67-638" transform="translate(2080.12 1398.59)"/><path class="cls-11" d="M-1392.12-710.36" transform="translate(2080.12 1398.59)"/><path class="cls-15" d="M-1416-936.11" transform="translate(2080.12 1398.59)"/><path class="cls-5" d="M-559.23-1291.63" transform="translate(2080.12 1398.59)"/><path class="cls-16" d="M-1452.74-505.68" transform="translate(2080.12 1398.59)"/><path class="cls-16" d="M-1513.21-768.62" transform="translate(2080.12 1398.59)"/><path class="cls-16" d="M-1236.15-741.92" transform="translate(2080.12 1398.59)"/><path class="cls-13" d="M-1284.31-673.65" transform="translate(2080.12 1398.59)"/><path class="cls-13" d="M-1279.55-700.53" transform="translate(2080.12 1398.59)"/><path class="cls-11" d="M-1304.58-637.49" transform="translate(2080.12 1398.59)"/><path class="cls-11" d="M-1282.23-669.81" transform="translate(2080.12 1398.59)"/><path class="cls-11" d="M-1310.46-598.48" transform="translate(2080.12 1398.59)"/></svg>