<?xml version="1.0" encoding="utf-8"?>
<!-- Generator: Adobe Illustrator 21.0.2, SVG Export Plug-In . SVG Version: 6.00 Build 0)  -->
<svg version="1.1" id="Layer_1" xmlns="http://www.w3.org/2000/svg" xmlns:xlink="http://www.w3.org/1999/xlink" x="0px" y="0px"
	 viewBox="0 0 833.7 363" style="enable-background:new 0 0 833.7 363;" xml:space="preserve">
<style type="text/css">
	.st0{fill:none;stroke:#000000;stroke-width:7;stroke-miterlimit:10;}
</style>
<title>name.s</title>
<path class="st0" d="M140.6,174.5c-1.3-4.8-7.8-25.9-28-36c-15.1-7.5-29.7-4.8-34-4c-39.5,7.3-70.1,57.6-75,104
	c-1.4,13.8-5.7,54.5,23,87c1.5,1.6,30.9,33.9,71,33c63.5-1.4,108.2-84.9,124-136c32-103.6-11.2-215.1-30-214
	c-19.9,1.2-26,130.4-27,174c-2.2,102.2,14.2,177.2,23,177c8.1-0.2,3.4-64.9,48-127c9.6-13.4,23.8-32.6,37-30
	c16.9,3.3,25.1,40.7,37,95c8.2,37.5,10.5,60.4,18,61c5.1,0.4,10-9.5,17-27c15.7-39.1,23.6-58.6,29-90c12.8-74.2,3.7-133.3,0-154
	c-2.5-14.1-15.3-85.3-31-85c-13,0.2-21.8,48.9-26,72c-7.3,39.9-8.3,80.8-3,121c3.6,26.8,7.9,56.6,25,91c16.3,32.8,44.1,69.6,55,65
	c4.4-1.8,4.1-9.6,4-38c-0.3-73.5,0.9-81.6,4-90c13-35.5,49.1-52,50-51s-44.1,24.3-53,66c-10.8,50.6,33.1,121.4,81,122
	c22.5,0.3,38.7-14.9,43-19c40.9-38.4,34.1-120.4-6-154c-3.6-3-24.5-20.5-50-16c-17.5,3.1-37.6,16.6-37,31c0.6,14.7,22.5,24.3,31,28
	c63.8,28,132.5-12.3,149-23c22-14.3,29.7-26.4,31-38c0.2-2.1,1.6-14-6-22c-9.4-9.9-26.9-8.1-37-4c-28.2,11.6-32.4,54.9-33,61
	c-3.2,33.2,8.4,85.5,53,106c4.3,2,45.9,20.2,84-5c16.7-11,23.6-30,30.1-45.6c3.9-9.4,6.4-20.5,11.4-42.9c9.9-44.1,7.8-51,6.5-54.5
	c-4.7-12.4-11.3-10.1-27-32c-9.8-13.6-16-22.3-19-35c-0.5-1.9-9.3-41.8,13-54c12.9-7,32.7-2.3,41,9c9.6,13.1,1,31.4,7,34
	c7.2,3.1,17.8-24.4,37-25c12-0.4,24,9.9,28,21c7.5,20.8-13.9,41.9-19,47c-6.8,6.8-15.5,11.5-33,21c-11.5,6.3-21.3,10.9-28,14"/>
</svg>
