<svg id="Layer_1" data-name="Layer 1" xmlns="http://www.w3.org/2000/svg" viewBox="0 0 325 400"><defs><style>.cls-1{fill:#cbcbcb;}.cls-2,.cls-4,.cls-5{fill:#998675;}.cls-3,.cls-6,.cls-8{fill:none;}.cls-3,.cls-5,.cls-6,.cls-7,.cls-8{stroke:#000;stroke-miterlimit:10;}.cls-3{stroke-width:2px;}.cls-4{fill-rule:evenodd;}.cls-6{stroke-width:1.7px;}.cls-7{fill:#c7b299;}.cls-9{font-size:28px;font-family:AmericanTypewriter, American Typewriter;}.cls-10{letter-spacing:0.03em;}.cls-11{letter-spacing:-0.12em;}</style></defs><title>travel</title><rect class="cls-1" width="325" height="400"/><rect class="cls-2" x="193" y="273" width="10" height="11"/><rect class="cls-2" x="125" y="177" width="6.5" height="7.5"/><path class="cls-3" d="M213,272c0,6.9-14.79,16-26,16"/><path class="cls-4" d="M213,272c0,6.9-14.79,16-26,16"/><path class="cls-5" d="M109,193c0-9.48,17.07-22,30-22"/><rect class="cls-2" x="128.5" y="170.5" width="87" height="108" rx="11.5" ry="11.5"/><path d="M204,171a11,11,0,0,1,11,11v85a11,11,0,0,1-11,11H140a11,11,0,0,1-11-11V182a11,11,0,0,1,11-11h64m0-1H140a12,12,0,0,0-12,12v85a12,12,0,0,0,12,12h64a12,12,0,0,0,12-12V182a12,12,0,0,0-12-12Z"/><rect class="cls-2" x="108.5" y="181.5" width="87" height="108" rx="11.5" ry="11.5"/><path d="M184,182a11,11,0,0,1,11,11v85a11,11,0,0,1-11,11H120a11,11,0,0,1-11-11V193a11,11,0,0,1,11-11h64m0-1H120a12,12,0,0,0-12,12v85a12,12,0,0,0,12,12h64a12,12,0,0,0,12-12V193a12,12,0,0,0-12-12Z"/><path class="cls-5" d="M192,185c0-5.6,10.24-13,18-13"/><line class="cls-6" x1="158.5" y1="171" x2="158.5" y2="92"/><line class="cls-6" x1="178.5" y1="171" x2="178.5" y2="92"/><rect class="cls-7" x="152" y="86" width="33" height="6" rx="3" ry="3"/><rect class="cls-7" x="150" y="173" width="24" height="5" rx="2.5" ry="2.5"/><rect class="cls-7" x="202" y="216" width="7" height="21" rx="3.5" ry="3.5"/><line class="cls-7" x1="205.5" y1="220.5" x2="205.5" y2="233.5"/><line class="cls-8" x1="169" y1="175.5" x2="156" y2="175.5"/><rect class="cls-7" x="114.5" y="220.5" width="75" height="64" rx="10" ry="10"/><rect class="cls-7" x="114.5" y="189.5" width="75" height="27" rx="10" ry="10"/><rect class="cls-2" x="119.5" y="241.5" width="65" height="38" rx="9.5" ry="9.5"/><path d="M175,242a9,9,0,0,1,9,9v19a9,9,0,0,1-9,9H129a9,9,0,0,1-9-9V251a9,9,0,0,1,9-9h46m0-1H129a10,10,0,0,0-10,10v19a10,10,0,0,0,10,10h46a10,10,0,0,0,10-10V251a10,10,0,0,0-10-10Z"/><path class="cls-8" d="M127.69,179.25"/><path class="cls-8" d="M127.4,179.68"/><path class="cls-8" d="M128,179.23"/><path class="cls-2" d="M127.28,180.73s0-3.75,0-3.75,0,3.75,0,3.75Z"/><path class="cls-2" d="M127.9,180.73s0-3.75,0-3.75,0,3.75,0,3.75Z"/><text class="cls-9" transform="translate(105.25 318.03)">T<tspan class="cls-10" x="17.84" y="0">R</tspan><tspan class="cls-11" x="39.12" y="0">A</tspan><tspan x="56.78" y="0">VEL</tspan></text></svg>