<svg xmlns="http://www.w3.org/2000/svg" viewBox="0 0 578 701.41"><defs><style>.cls-1{fill:#f17a24;}.cls-2{fill:#fbb03b;}.cls-3{fill:#f1d624;}.cls-4{fill:#f1ff62;}</style></defs><title>trirho</title><g id="Layer_1" data-name="Layer 1"><path class="cls-1" d="M368.49,740.64c-64.93,2.41-113.23-12.78-127.47-17.57-54.88-18.49-87.29-45.45-111.86-65.89C66.69,605.2,56.89,563.91,55,555c-3.33-15.8-2.59-28.74,1.3-29.65,4.83-1.13,10.38,17.25,32.52,29.65,6.69,3.75,22.64,11.29,27.31,7.69,9.49-7.33-43-48.15-59.83-101-28.68-90.21,67.31-190.09,78-186.69,3.66,1.16-3.42,14.14,5.2,32.95,9,19.69,29.32,33.15,33.82,30.75,3.21-1.71-3.21-10.66-5.2-30.75a142.91,142.91,0,0,1,0-22c1.35-18.88,15.6-60.3,41.62-92.25C278,110,459.83,41.66,469.95,55.37c4.36,5.91-29.34,18.88-44.22,57.11-5.19,13.33-11.49,38.46,5.2,87.85C456.84,277,495.2,279.22,514.17,340.9c19.73,64.14,3.2,124.92,7.8,125.19,4.11.25,1.09-41.26,33.82-74.68,22.82-23.31,56.59-34.19,59.83-30.75,2.46,2.61-15,11-20.81,28.55-6.87,20.77,9.62,31.09,20.81,65.89,4.93,15.33,14.21,45.61,2.6,79.07-8.33,24-25.28,40.65-28.62,43.93-16.45,16.16-33.53,24-32.52,25.26s21.81-5.94,41.62-19.77c18.08-12.62,25-23.41,28.62-22C632,563.51,626,584,619.53,599,590.3,666.4,515.77,703.6,505.07,708.79,446.43,737.2,391.67,739.77,368.49,740.64Z" transform="translate(-51 -40.59)"/><path class="cls-1" d="M531.26,218.13a80.65,80.65,0,0,1-29.57-4.28c-12.73-4.5-20.25-11.06-26-16-14.49-12.65-16.77-22.7-17.2-24.86-.77-3.85-.6-7,.3-7.22,1.12-.27,2.41,4.2,7.54,7.22,1.55.91,5.25,2.75,6.34,1.87,2.2-1.78-10-11.72-13.88-24.6-6.65-22,15.62-46.28,18.11-45.45.85.28-.79,3.44,1.21,8,2.1,4.79,6.8,8.07,7.85,7.49.74-.42-.75-2.59-1.21-7.49a36.5,36.5,0,0,1,0-5.35c.31-4.6,3.62-14.68,9.66-22.46,15.82-20.38,58-37,60.35-33.69,1,1.44-6.81,4.6-10.26,13.9-1.2,3.24-2.67,9.36,1.21,21.39,6,18.67,14.91,19.21,19.31,34.22,4.58,15.61.74,30.41,1.81,30.48s.25-10,7.85-18.18c5.29-5.67,13.13-8.32,13.88-7.49.57.64-3.48,2.67-4.83,7-1.59,5.06,2.23,7.57,4.83,16,1.14,3.73,3.3,11.1.6,19.25a29.19,29.19,0,0,1-6.64,10.69c-3.82,3.93-7.78,5.83-7.54,6.15s5.06-1.45,9.66-4.81c4.2-3.07,5.8-5.7,6.64-5.35,1.08.46-.3,5.43-1.81,9.09-6.78,16.41-24.07,25.47-26.55,26.73A74.94,74.94,0,0,1,531.26,218.13Z" transform="translate(-51 -40.59)"/><path class="cls-2" d="M510.14,216.53c-11.25-3.7-16.76-11.43-22.33-19.25-8.06-11.3-10-21.24-13.28-38-.78-4-4.07-21.51-.6-22.46,1.68-.46,3.32,3.4,9.66,7.49,1.33.86,10.49,6.77,13.88,4.81,4.82-2.79-8.73-17.71-6-34.75,3.66-23.12,35.32-38.18,36.81-36.89.67.58-5,4.31-4.83,10.16.18,6.08,6.79,8.47,14.48,15.51,2.48,2.27,15.16,14.25,18.11,29.94,1.39,7.39-.72,8.52,1.21,20.85,1.44,9.26,3.88,16.69,5.43,16.58,1.09-.08.36-3.8,3.62-8,2.31-3,5.33-4.57,7.85-5.88,1.63-.85,5.74-3,6.64-2.14s-2.15,3.47-3.62,8.56c-1.17,4.05.06,4.92-.6,9.09-.47,2.95-2.33,6.07-6,12.3a93.27,93.27,0,0,1-8.13,11.71c-1,1.23-2.1,2.48-3.33,3.8-6.58,7-11,11.72-18.71,15C538,215.89,524.62,221.29,510.14,216.53Z" transform="translate(-51 -40.59)"/><path class="cls-3" d="M511.95,215.46c-9.2-4.95-11-14.52-13.28-27.27-3.5-19.21.76-35.33,1.81-35.29.48,0-.14,3.43,2.41,7s7.76,6.44,9.66,5.35c3.74-2.15-10-17.38-9.66-39,.2-14.2,6.35-27,9.05-26.73,1.79.17.93,5.94,4.22,13.37,4.49,10.14,11.87,12.07,19.92,20.32,10.6,10.87,13.28,23.22,15.09,31.55,1.43,6.61,4.14,19.94-1.81,34.75-2.54,6.32-5.07,12.34-12.07,16A28.35,28.35,0,0,1,511.95,215.46Z" transform="translate(-51 -40.59)"/><path class="cls-4" d="M517.38,215.46c-1.56-1-4.88-3.56-7.85-15-3.13-12.08-2.82-22.35-1.81-22.46.77-.08,1.18,5.95,6.64,12.3,1,1.21,3.62,4.21,4.83,3.74,1.72-.66-1.47-7.45-1.81-14.44-.8-16.5,14.47-30.5,15.69-29.94.59.27-2.56,3.79-2.41,9.62.16,6.63,4.4,9.09,7.85,16,4.59,9.25,3.56,17.93,3,22.46-.83,6.93-2,16.87-9.66,19.78C526.94,219.48,521,217.8,517.38,215.46Z" transform="translate(-51 -40.59)"/><path class="cls-1" d="M581.68,348.5a62,62,0,0,1-22.84-3.32c-9.83-3.49-15.64-8.58-20-12.44-11.19-9.81-12.95-17.61-13.28-19.29-.6-3-.46-5.43.23-5.6.87-.21,1.86,3.26,5.83,5.6,1.2.71,4.06,2.13,4.89,1.45,1.7-1.38-7.71-9.09-10.72-19.08-5.14-17,12.06-35.89,14-35.25.66.22-.61,2.67.93,6.22,1.62,3.72,5.25,6.26,6.06,5.81.58-.32-.58-2-.93-5.81a28.44,28.44,0,0,1,0-4.15c.24-3.56,2.79-11.39,7.46-17.42,12.22-15.81,44.79-28.72,46.61-26.13.78,1.12-5.26,3.57-7.92,10.78-.93,2.52-2.06,7.26.93,16.59,4.64,14.48,11.52,14.9,14.91,26.54,3.53,12.11.57,23.59,1.4,23.64s.2-7.79,6.06-14.1c4.09-4.4,10.14-6.46,10.72-5.81.44.49-2.69,2.07-3.73,5.39-1.23,3.92,1.72,5.87,3.73,12.44.88,2.89,2.55,8.61.47,14.93a22.65,22.65,0,0,1-5.13,8.29c-2.95,3.05-6,4.53-5.83,4.77s3.91-1.12,7.46-3.73c3.24-2.38,4.48-4.42,5.13-4.15.84.35-.23,4.21-1.4,7.05-5.24,12.73-18.59,19.76-20.51,20.74A57.66,57.66,0,0,1,581.68,348.5Z" transform="translate(-51 -40.59)"/><path class="cls-2" d="M565.37,347.26c-8.68-2.87-12.94-8.86-17.24-14.93-6.22-8.77-7.72-16.47-10.25-29.45-.6-3.1-3.14-16.68-.47-17.42,1.29-.36,2.57,2.64,7.46,5.81,1,.67,8.1,5.25,10.72,3.73,3.73-2.16-6.74-13.74-4.66-27,2.83-17.93,27.28-29.61,28.43-28.62.52.45-3.86,3.35-3.73,7.88.14,4.72,5.25,6.57,11.19,12,1.92,1.76,11.71,11.06,14,23.22,1.07,5.73-.55,6.61.93,16.17,1.11,7.18,3,12.94,4.19,12.86.84-.06.28-2.95,2.8-6.22a17.08,17.08,0,0,1,6.06-4.56c1.26-.66,4.44-2.33,5.13-1.66s-1.66,2.69-2.8,6.64c-.91,3.14,0,3.82-.47,7.05-.36,2.29-1.8,4.7-4.66,9.54a72.35,72.35,0,0,1-6.28,9.08c-.78,1-1.62,1.92-2.58,2.94-5.08,5.44-8.5,9.09-14.45,11.61C586.91,346.76,576.55,351,565.37,347.26Z" transform="translate(-51 -40.59)"/><path class="cls-3" d="M566.76,346.43c-7.11-3.84-8.46-11.26-10.25-21.15-2.71-14.9.59-27.4,1.4-27.37.37,0-.11,2.66,1.86,5.39s6,5,7.46,4.15c2.89-1.67-7.69-13.48-7.46-30.28.15-11,4.91-20.94,7-20.74,1.38.13.72,4.61,3.26,10.37,3.47,7.86,9.17,9.36,15.38,15.76,8.19,8.43,10.26,18,11.65,24.47,1.11,5.13,3.2,15.47-1.4,27-2,4.9-3.91,9.57-9.32,12.44A21.81,21.81,0,0,1,566.76,346.43Z" transform="translate(-51 -40.59)"/><path class="cls-4" d="M571,346.43c-1.2-.78-3.77-2.76-6.06-11.61-2.42-9.37-2.17-17.34-1.4-17.42.6-.06.91,4.61,5.13,9.54.8.94,2.79,3.26,3.73,2.9,1.33-.51-1.14-5.78-1.4-11.2-.62-12.8,11.17-23.66,12.12-23.22.46.21-2,2.94-1.86,7.47.13,5.14,3.4,7.05,6.06,12.44,3.54,7.18,2.75,13.91,2.33,17.42-.64,5.38-1.55,13.08-7.46,15.35C578.34,349.54,573.75,348.24,571,346.43Z" transform="translate(-51 -40.59)"/><path d="M307.76,74.23l4.43,5.91c1.48-.9,2.23-1.35,3.73-2.24l1.84,2.53c-1.48.88-2.22,1.32-3.69,2.22l9.63,12.84a2.93,2.93,0,0,0,2,1.38,3.69,3.69,0,0,0,2.15-.59q.33-.2.69-.44a6.56,6.56,0,0,0,.76-.62l1.75,2.41a12,12,0,0,1-1.17,1,14.39,14.39,0,0,1-1.41,1,8,8,0,0,1-1.86.83,5.3,5.3,0,0,1-1.91.21,4.65,4.65,0,0,1-1.87-.56,5.49,5.49,0,0,1-1.72-1.53L310.55,84.81c-1.46.91-2.19,1.37-3.63,2.3L305,84.66c1.46-.94,2.19-1.4,3.67-2.33l-4.51-5.86C305.57,75.56,306.3,75.12,307.76,74.23Z" transform="translate(-51 -40.59)"/><path d="M320.81,75.05c1.43-.82,2.15-1.22,3.58-2l2,3.18a8.09,8.09,0,0,1,.94-4.08,7.76,7.76,0,0,1,4-3.27,5,5,0,0,1,1-.25l2,3.12a7.67,7.67,0,0,0-2,.59A7,7,0,0,0,330,74.17a5.59,5.59,0,0,0-1.09,2.26,5.45,5.45,0,0,0,0,2.4,6.62,6.62,0,0,0,1,2.28l8.39,12.27c-1.33.74-2,1.11-3.31,1.86Z" transform="translate(-51 -40.59)"/><path d="M334.6,56.61l2.21,3.63c-1.51.74-2.26,1.12-3.75,1.88l-2.26-3.61C332.31,57.75,333.07,57.36,334.6,56.61ZM339.71,65l12.75,21L349,87.67,336,66.85C337.49,66.11,338.22,65.74,339.71,65Z" transform="translate(-51 -40.59)"/><path d="M345.24,62.33c1.5-.71,2.25-1.06,3.75-1.75l1.68,3.32a8.19,8.19,0,0,1,1.3-4,7.92,7.92,0,0,1,4.27-3,5,5,0,0,1,1-.18L358.94,60a7.76,7.76,0,0,0-2.06.44,7.12,7.12,0,0,0-2.44,1.66,5.7,5.7,0,0,0-1.28,2.17,5.46,5.46,0,0,0-.2,2.39,6.51,6.51,0,0,0,.8,2.35L361,81.88l-3.46,1.61Z" transform="translate(-51 -40.59)"/><path d="M360.69,44.94l5.86,11.82a7.85,7.85,0,0,1,2.51-4.26,14.57,14.57,0,0,1,4.48-2.6,12.19,12.19,0,0,1,3.75-.79,9.85,9.85,0,0,1,3.4.41A7.62,7.62,0,0,1,383.39,51a6.52,6.52,0,0,1,1.76,2.43l6.81,16-3.66,1.29-6.77-15.39a4.62,4.62,0,0,0-1.35-1.82,4.67,4.67,0,0,0-1.84-.88,6,6,0,0,0-2.14-.09,10,10,0,0,0-2.23.56,8.35,8.35,0,0,0-2.53,1.52,8.13,8.13,0,0,0-1.85,2.27,6.91,6.91,0,0,0-.82,2.65,4.86,4.86,0,0,0,.51,2.67l6.56,13.24L372.22,77,356.66,46.59C358.27,45.92,359.07,45.59,360.69,44.94Z" transform="translate(-51 -40.59)"/><path d="M392,56.75A13.79,13.79,0,0,1,391,52a10.07,10.07,0,0,1,.86-4.47,10.42,10.42,0,0,1,2.88-3.73,13.48,13.48,0,0,1,5-2.52,14.67,14.67,0,0,1,5.7-.58,12.48,12.48,0,0,1,4.81,1.49,11.87,11.87,0,0,1,3.63,3.17,14.14,14.14,0,0,1,2.27,4.43,13.88,13.88,0,0,1,.65,4.82,10.9,10.9,0,0,1-1.11,4.37,10.64,10.64,0,0,1-2.87,3.53,13,13,0,0,1-4.64,2.33,13.56,13.56,0,0,1-5.25.55A12.42,12.42,0,0,1,398.29,64a12.74,12.74,0,0,1-3.7-3A15.25,15.25,0,0,1,392,56.75Zm3.83-1.24a11.78,11.78,0,0,0,1.86,3.21A9.93,9.93,0,0,0,400.33,61a8.6,8.6,0,0,0,3.18,1.12,8.27,8.27,0,0,0,3.53-.29,7.81,7.81,0,0,0,3.06-1.63A7.22,7.22,0,0,0,412,57.61a8.7,8.7,0,0,0,.68-3.25,10.74,10.74,0,0,0-.56-3.59,11.09,11.09,0,0,0-1.71-3.3,9.45,9.45,0,0,0-2.6-2.38,8.67,8.67,0,0,0-3.3-1.18,8.79,8.79,0,0,0-3.75.3A8.05,8.05,0,0,0,397.51,46a7.31,7.31,0,0,0-1.89,2.69,7.94,7.94,0,0,0-.55,3.3A10.86,10.86,0,0,0,395.83,55.51Z" transform="translate(-51 -40.59)"/></g><g id="Layer_2" data-name="Layer 2"><path class="cls-2" d="M277.44,734C229,718.85,205.22,687.11,181.19,655,146.47,608.55,138.08,567.74,124,499c-3.37-16.42-17.52-88.34-2.6-92.25,7.22-1.89,14.32,14,41.62,30.75,5.73,3.52,45.23,27.81,59.83,19.77,20.8-11.46-37.65-72.74-26-142.76,15.77-95,152.25-156.83,158.69-151.55,2.9,2.38-21.55,17.72-20.81,41.73.77,25,29.29,34.77,62.43,63.69,10.7,9.34,65.35,58.55,78,123,6,30.36-3.09,35,5.2,85.66,6.22,38,16.74,68.55,23.41,68.09,4.7-.32,1.54-15.6,15.61-32.95,9.95-12.27,23-18.77,33.82-24.16,7-3.51,24.76-12.33,28.62-8.79s-9.27,14.25-15.61,35.14c-5.05,16.65.26,20.22-2.6,37.34-2,12.11-10,24.91-26,50.52a383.7,383.7,0,0,1-35.05,48.1c-4.34,5.06-9.05,10.19-14.37,15.59-28.37,28.8-47.43,48.15-80.64,61.5C397.68,731.41,339.88,753.61,277.44,734Z" transform="translate(-51 -40.59)"/></g><g id="Layer_3" data-name="Layer 3"><path class="cls-3" d="M285.25,729.65C245.57,709.33,238,670,228,617.64c-15.1-78.9,3.3-145.11,7.8-145,2.07.07-.61,14.1,10.41,28.55s33.45,26.44,41.62,22c16.12-8.83-42.91-71.38-41.62-160.33.84-58.34,27.38-110.87,39-109.82,7.7.7,4,24.4,18.21,54.91,19.37,41.64,51.18,49.59,85.85,83.46,45.7,44.66,57.25,95.38,65,129.59,6.18,27.16,17.84,81.9-7.8,142.76-10.94,26-21.85,50.7-52,65.89C361.66,746.18,316.93,745.88,285.25,729.65Z" transform="translate(-51 -40.59)"/></g><g id="Layer_4" data-name="Layer 4"><path class="cls-4" d="M308.66,729.65c-6.72-4.14-21.05-14.62-33.82-61.5-13.51-49.63-12.13-91.83-7.8-92.25,3.33-.32,5.09,24.44,28.62,50.52,4.49,5,15.59,17.29,20.81,15.37,7.4-2.71-6.34-30.62-7.8-59.3-3.47-67.8,62.37-125.3,67.64-123,2.56,1.12-11,15.55-10.41,39.53.7,27.23,19,37.34,33.82,65.89,19.78,38,15.33,73.66,13,92.25-3.56,28.48-8.66,69.29-41.62,81.27C349.85,746.16,324.26,739.27,308.66,729.65Z" transform="translate(-51 -40.59)"/></g></svg>