<svg id="Layer_1" data-name="Layer 1" xmlns="http://www.w3.org/2000/svg" viewBox="0 0 225.29 218.24"><defs><style>.cls-1,.cls-3,.cls-6,.cls-7{fill:#231f20;}.cls-1,.cls-2,.cls-4,.cls-5{stroke:#231f20;stroke-miterlimit:10;}.cls-2{fill:#fff3df;}.cls-4{fill:#006838;}.cls-4,.cls-5{stroke-width:0.5px;}.cls-5{fill:#228dbb;}.cls-6{font-size:5px;}.cls-6,.cls-7{font-family:Avenir-Roman, Avenir;}.cls-7{font-size:20px;}.cls-8{letter-spacing:0em;}</style></defs><path class="cls-1" d="M219.46,228.92a186.59,186.59,0,0,1,111.64-.48V70.71c-11.86-6.86-29.73-14.8-51.73-15.1-26.53-.35-33,10.78-61.06,10.57C190.52,66,184.4,55,158.53,55.24c-22.2.23-40.15,8.57-51.73,15.47V228.44a160.7,160.7,0,0,1,51.31-9.81,167.33,167.33,0,0,1,47.26,5.79c5.8,1.56,10.58,3.2,14.09,4.5q-.57-81.37-1.15-162.74" transform="translate(-106.3 -43.95)"/><path class="cls-2" d="M219,61.39a87.31,87.31,0,0,0-102.68,0V215.87a134.52,134.52,0,0,1,102.68,0Z" transform="translate(-106.3 -43.95)"/><path class="cls-2" d="M322.75,61.14a87.31,87.31,0,0,0-102.68,0V215.63a134.52,134.52,0,0,1,102.68,0Z" transform="translate(-106.3 -43.95)"/><path class="cls-3" d="M224.89,94.12a76.48,76.48,0,0,0-3.14,13.46,1.26,1.26,0,0,0,2.42.66,62.92,62.92,0,0,1,3.5-9.41,20.05,20.05,0,0,1,2.45-4,6.34,6.34,0,0,1,1.6-1.41c.15-.09.54-.36.76-.31-.13,0-.11-.06,0,.07a3.09,3.09,0,0,1,.15.67c.53,3.19-.86,6.41-1.1,9.58-.1,1.37-.17,3.22.82,4.32s2.67,1,3.92.29a10.23,10.23,0,0,0,3.44-3.6,39.59,39.59,0,0,0,2.64-5c.67-1.45-1.49-2.72-2.16-1.26a42.53,42.53,0,0,1-2.22,4.36c-.73,1.21-1.64,2.74-3,3.38-.68.33-.87.3-1-.43a10.92,10.92,0,0,1,0-2.49c.17-1.61.59-3.19.85-4.78.36-2.21,1-7.68-2.53-7.56a6,6,0,0,0-3.81,2.22,20.28,20.28,0,0,0-2.65,4,61.18,61.18,0,0,0-4.14,10.73l2.42.66a76,76,0,0,1,3.13-13.46c.51-1.53-1.9-2.19-2.41-.66Z" transform="translate(-106.3 -43.95)"/><path class="cls-3" d="M240.53,97.77a7.57,7.57,0,0,0-1.4,4.67c.06,1.49.53,3.75,2.07,4.39,2,.83,3.33-1.25,4.21-2.66a18.26,18.26,0,0,0,2.24-4.9,4.65,4.65,0,0,0-1.08-4.81,3.46,3.46,0,0,0-2.33-1,4.19,4.19,0,0,0-2.53,1.29c-1.19,1-3,3-2,4.65.88,1.51,2.94,1.23,4.35.86,3.44-.91,6.19-3.32,8.42-6a1.26,1.26,0,0,0,0-1.76,1.25,1.25,0,0,0-1.76,0,18.73,18.73,0,0,1-4.7,4.22,10.53,10.53,0,0,1-3,1.2,3.38,3.38,0,0,1-1.06.13l-.15,0,0,0c-.21,0-.09-.1,0,.08.33.49,0,.17.13.13s.26-.41.33-.5a7.35,7.35,0,0,1,1-1.12c.23-.2.66-.68,1-.69s.74.44.89.73a2.15,2.15,0,0,1,.16,1.32,11.49,11.49,0,0,1-1.34,3.52q-.42.78-.9,1.53c-.16.25-.32.5-.49.74s-.5.49-.55.64-.06,0-.06,0,.26,0,.22.1-.27-.54-.3-.63a5.14,5.14,0,0,1,.73-5,1.26,1.26,0,0,0-.44-1.71,1.28,1.28,0,0,0-1.71.45Z" transform="translate(-106.3 -43.95)"/><path class="cls-3" d="M250.48,93.17a32.28,32.28,0,0,0-.81,8.59c.2,2.57.79,5.31,3,6.89a1.28,1.28,0,0,0,1.71-.45c3-4.16,3.58-9.77,7.3-13.45l-2.13-.88c.34,2.82,3.32,4,5.78,2.9a1.27,1.27,0,0,0,.45-1.71,1.28,1.28,0,0,0-1.71-.45c-.6.28-1.92.09-2-.74a1.27,1.27,0,0,0-2.14-.88c-3.92,3.87-4.53,9.59-7.69,14l1.71-.45c-1.59-1.12-1.77-3.79-1.83-5.54a32.83,32.83,0,0,1,.77-7.12A1.27,1.27,0,0,0,252,92.3a1.25,1.25,0,0,0-1.54.87Z" transform="translate(-106.3 -43.95)"/><path class="cls-3" d="M264.47,96.06a3.42,3.42,0,0,0,3.79.8,7.18,7.18,0,0,0,3.18-3,3.5,3.5,0,0,0,.81-2.1A2,2,0,0,0,270.33,90c-1.52-.14-2.82,1-3.66,2.17a18.12,18.12,0,0,0-2,3.67,8.38,8.38,0,0,0-.76,4.65c.22,1.37,1,2.93,2.46,3.24a3.38,3.38,0,0,0,3-1.24,34.51,34.51,0,0,0,3.68-4.42,1.26,1.26,0,0,0-.45-1.71,1.29,1.29,0,0,0-1.71.45c-.15.22-.32.43-.48.64a1.44,1.44,0,0,1-.12.16l-.14.18-.55.69a23.19,23.19,0,0,1-2.2,2.44l-.24.21c-.06,0,.17-.09,0,0a1.27,1.27,0,0,1-.22.13c-.05,0,0,0,0,0s-.08-.08-.08-.07l-.19-.3a3.47,3.47,0,0,1-.28-.95c-.22-1.62.58-3.18,1.31-4.56a10.78,10.78,0,0,1,1.25-2.06,3.47,3.47,0,0,1,.82-.71s.43-.19.43-.18-.39-.44-.23-.08l-.17-.63c0,.31-.56,1-.76,1.26a6.42,6.42,0,0,1-1,1.13,1.88,1.88,0,0,1-1,.43.75.75,0,0,1-.76-.32,1.26,1.26,0,0,0-1.77,0,1.29,1.29,0,0,0,0,1.77Z" transform="translate(-106.3 -43.95)"/><path class="cls-3" d="M270.53,101.53c1.27-1.6,2.44-3.28,3.68-4.89.68-.88,1.27-1.84,1.94-2.72a1.75,1.75,0,0,1,1.18-.77l-1-.12c-.2-.42-.26-.36-.19.18l0,.45L276.1,95c-.05.91-.11,1.81-.18,2.72-.13,1.81-.32,3.61-.54,5.41-.16,1.39,2.25,1.73,2.46.34a26.87,26.87,0,0,1,2.25-7.59c.12-.25.24-.5.37-.75s.54-.6,0-.63c-.31-.14-.4-.06-.28.22a5.38,5.38,0,0,1,.07.69c0,.29,0,.57,0,.86a30.17,30.17,0,0,1-.38,4.35,1.25,1.25,0,0,0,2.41.67A34.74,34.74,0,0,1,284,97.8a15,15,0,0,1,1-1.53c.16-.24.65-.63.68-.85.21-.12.19-.19-.07-.24s-.26-.14-.18.09a9.12,9.12,0,0,0,.12,2.19c0,.67,0,1.33,0,2a27.91,27.91,0,0,0,.26,4.09c.15,1,.36,2.07,1.4,2.47a2.44,2.44,0,0,0,2.17-.33c1.88-1.17,3.26-3.3,4.53-5,.94-1.31-1.23-2.56-2.16-1.27a32,32,0,0,1-2.41,3,7.17,7.17,0,0,1-1,1,3.45,3.45,0,0,0-.41.25c-.24.08-.06.19.55.33l-.1-.44a9.65,9.65,0,0,0-.24-2.09c0-.74,0-1.48,0-2.22a37.12,37.12,0,0,0-.16-4.22c-.3-2.44-2.74-2.87-4.26-1.08a24.28,24.28,0,0,0-3.62,6.7l2.41.67c.24-1.73,1.74-11-2.58-9-1.56.72-2.22,3.12-2.78,4.58a27.49,27.49,0,0,0-1.56,6l2.45.33c.32-2.62.56-5.26.7-7.9.09-1.61.52-5.3-2.32-4.44-1.61.49-2.3,2-3.2,3.23-1.38,1.93-2.81,3.86-4.3,5.72-1,1.24.77,3,1.77,1.77Z" transform="translate(-106.3 -43.95)"/><path class="cls-3" d="M290.88,104.48c2.62-3.31,5.44-6.71,7-10.67.62-1.55,1.22-3.51.53-5.13a2.69,2.69,0,0,0-1.9-1.66c-1.24-.22-2,.64-2.55,1.62-1.74,3.09-1.48,6.41-.57,9.69a28.93,28.93,0,0,0,2.08,5.47c.69,1.33,1.65,2.93,3.13,3.47,1.8.66,3.34-.66,4.23-2.11A9.7,9.7,0,0,0,304,98a1.25,1.25,0,0,0-2.45.33,2.06,2.06,0,0,0,1.52,2c1.19.37,2.08-.31,3.2-.52,1.91-.36,3.87.22,5-1.82.72-1.32.7-3.68-.81-4.47-1.78-.93-3.85,1.07-4.57,2.54-1.8,3.66,2.33,9.19,6.28,6.64a23.27,23.27,0,0,0,5.21-4.94c.92-1.16,3.42-3.7,2.17-5.24s-4.48-.62-5.27,1a1.83,1.83,0,0,0,1,2.47,10.16,10.16,0,0,0,2,.72c.33.08,1.48.09,1.68.35l-.37-.89a6.55,6.55,0,0,1-.75,2.37c-.3.82-.61,1.64-.93,2.44a15.89,15.89,0,0,0-1.56,4.69,3.56,3.56,0,0,0,1.44,3.36,2.19,2.19,0,0,0,3-1.11c.73-1.44-1.43-2.7-2.16-1.27-.08.15.05.21.39.21l-.14-.28c.11-.34,0-1,0-1.39a14.06,14.06,0,0,1,.92-2.44,50.17,50.17,0,0,0,2.07-5.56,1.88,1.88,0,0,0-1.52-2.61c-.41-.09-.84-.13-1.25-.23s-1-.43-1.3-.39c-.36-.21-.46,0-.32.62a1,1,0,0,1,.41-.24c.23,0,.7-.2.8-.09l-.36-.88c0-.37,0-.16-.13.11s-.29.47-.43.7c-.3.46-.61.92-.94,1.36a24.29,24.29,0,0,1-2.42,2.75,16.61,16.61,0,0,1-2.6,2.21c-1.05.67-2.09-.13-2.65-1.11a2.45,2.45,0,0,1,.15-2.73c.22-.29,1.08-.72.76-1,.17.17.06.76,0,.94-.35.93-1.67.59-2.45.65a6.29,6.29,0,0,0-1.55.26,2.78,2.78,0,0,0-.76.29c-.42.27-.4-.13-.35.57l-2.46.33a7.16,7.16,0,0,1-.56,4.62c-.28.59-.89,1.86-1.67,1.53s-1.45-1.84-1.82-2.59a26.12,26.12,0,0,1-1.52-4,13,13,0,0,1-.77-5.65,7.82,7.82,0,0,1,.72-2.32,4,4,0,0,1,.31-.58c-.06.08-.21-.44-.12-.06a3,3,0,0,1,.07,1,10,10,0,0,1-1.07,3.26,48.66,48.66,0,0,1-6,8.77c-1,1.25.77,3,1.76,1.77Z" transform="translate(-106.3 -43.95)"/><path class="cls-4" d="M224.7,189.41c-.55-1-.3-1.68.57-5.59,4-17.9,2.36-19.64,5.46-22.38,5.32-4.7,11.74-.91,16.61-6.27,3.42-3.77,1.54-7,5-9.4,3.92-2.67,11.53-2.09,15.6,1.34,2.52,2.13,2.72,4.54,3,22.39.13,7.59.07,11.42-.51,12.54C263.75,195.18,228.92,197.17,224.7,189.41Z" transform="translate(-106.3 -43.95)"/><polygon class="cls-4" points="216.45 119.8 211.21 142.43 207.71 152.13 216.45 152.13 216.45 119.8"/><path class="cls-4" d="M301.06,194.13c-18.74-2.71-26.5,6.14-34.22,1.34-6.83-4.25-6.19-14.58-6-17,.35-5.62,6.44-12.93,18.61-27.32,4.53-5.35,7.53-8.6,11.58-8.51.8,0,3.82.22,9.05,5.82,2.23,2.39,5.28,6.2,10.57,19.26.41,1,1.56,3.95,2.75,7.88a47.83,47.83,0,0,1,2.28,10.48c.33,4.39.54,6.64-1,8.06C311.94,196.62,306.74,195,301.06,194.13Z" transform="translate(-106.3 -43.95)"/><path class="cls-5" d="M220.07,215.63a134.52,134.52,0,0,1,102.68,0V188.76A58.64,58.64,0,0,0,305,182.94c-17.78-2.76-23.7,4.93-44.78,3.13-8.47-.72-11.1-2.27-19.63-1.79a66.87,66.87,0,0,0-20.49,4.48" transform="translate(-106.3 -43.95)"/><text class="cls-6" transform="translate(144.86 152.91) scale(1.12 1)">yangshuo, china</text><text class="cls-7" transform="translate(44.66 208.89)">bu<tspan class="cls-8" x="23.34" y="0">l</tspan><tspan x="28.16" y="0">let journaler</tspan></text><path class="cls-4" d="M219,61.39a89,89,0,0,0-102.68,0V215.87a134.52,134.52,0,0,1,102.68,0Z" transform="translate(-106.3 -43.95)"/><path class="cls-5" d="M224.69,24.57" transform="translate(-106.3 -43.95)"/><path class="cls-5" d="M133.55,203c-3.82-8.47,8-16.49,7.12-26.72-1.09-12.44-19.71-13.3-21-24.76-1.22-11,15.29-15.36,19.58-32.57,2.58-10.37-.52-20.37-3.84-27.56-2.17-11,2.17-22.2,10.87-28.3A25.15,25.15,0,0,1,177,64.64c8.91,4.87,14.69,4.68,18.36,3.54a60.37,60.37,0,0,0,11.38-4.7A16.14,16.14,0,0,1,212.83,61a14.48,14.48,0,0,1,6.12.4c.7,14.78-.3,31.34-.3,49.88,0,0-.62,42.37,0,61.06.18,5.34,0,10.69.13,16,.12,5.81-.13,5.82,0,7.76.1,1.7.25,3.1.28,5.55,0,2-.07,2.61-.1,4.26-.13,6.27.78,9.7,0,9.94-.36.11-.75-.57-1.78-1.74a41.19,41.19,0,0,0-4.72-4.1c-4.92-3.89-14.66-1.77-24.56-7.05a55,55,0,0,0-7.81-3.5c-4-1.43-5.72-1.46-6.68-1.42-2.5.13-3.69,1-6.66,2.11-3.35,1.27-4.56,1.2-9.19,2.3-13,3.07-16.55,6.72-20.63,4.44A8.19,8.19,0,0,1,133.55,203Z" transform="translate(-106.3 -43.95)"/><path class="cls-4" d="M146.65,191.1c-3.25-6.86,6.81-13.36,6-21.65-.93-10.08-16.75-10.77-17.83-20.06-1.05-8.9,13-12.44,16.63-26.39,2.19-8.4-.45-16.5-3.26-22.32A21.93,21.93,0,0,1,183.58,79c7.58,4.15,12.49,3.9,15.6,2.86,4.07-1.36,5.21-4.12,10.78-5.45,2.74-.65,4.21-1.07,6.26-2.62.93-.7,2.19-1.87,2.75-1.51.32.2.27.81.25,1.06-.19,2.32,0,4.66-.08,7-.11,4.35-.11,19.83-.19,36.44,0,8.42-.3,40.84,0,49.47.15,4.32,0,8.66.11,13,.16,7.77.34,8.48-.37,9.62-2.94,4.8-13,3.73-25.88,2.23-17.69-2.06-18.61-4.79-25.15-2.86-8.12,2.39-13.36,8.58-18.15,6A6.81,6.81,0,0,1,146.65,191.1Z" transform="translate(-106.3 -43.95)"/><path class="cls-5" d="M83.07,182.93" transform="translate(-106.3 -43.95)"/><path class="cls-4" d="M219.66,72.39" transform="translate(-106.3 -43.95)"/></svg>