<svg id="Layer_1" data-name="Layer 1" xmlns="http://www.w3.org/2000/svg" viewBox="0 0 222.94 262.43"><defs><style>.cls-1{fill:#4f6231;}.cls-2{fill:#fff;}.cls-3{font-size:21.82px;font-family:Avenir-Roman, Avenir;}.cls-4{letter-spacing:0em;}</style></defs><path class="cls-1" d="M196,25.49a100.56,100.56,0,0,0-33.48,22.86c-17.68,18.49-22.81,39-25.45,50.11-3.16,13.31-11.94,50.32,9.38,87,27.91,48.09,83.32,54.12,87.5,54.51,3.28.3,65.37,5,101.34-43.52,30.17-40.66,18.29-86.8,16.07-95.38-2.12-8.24-12.38-44.28-46-66.81-6.16-4.14-21.87-14.42-44.2-17.15-9.71-1.18-17.62-.57-25,0C224.73,18,211.32,19.07,196,25.49Z" transform="translate(-132.53 -16.46)"/><path class="cls-2" d="M185.52,157.26h0c-.19-.42-.48-1-.87-1.7s-6.48-11-16.54-11.05c-1.65,0-8.37.27-11.61,5.28-3.66,5.65-.73,14,4.46,17.58,3.31,2.27,7,2.22,8.93,2.2a20.28,20.28,0,0,0,11.61-4" transform="translate(-132.53 -16.46)"/><path class="cls-2" d="M308.58,161.61a10,10,0,0,0-8.93,4.83c-1.76,3.14-1.93,8,.9,10.11,3.17,2.4,8.24-.06,10.71-2.19a12.42,12.42,0,0,0,4-8.36" transform="translate(-132.53 -16.46)"/><path class="cls-2" d="M212,195.64c0-.74,0-6.41-4.46-9.67-6-4.41-13.8.15-14.29.44-5.73,3.47-9.67,11.51-6.69,16.27,2.75,4.39,10.2,4,11.6,3.95a18.6,18.6,0,0,0,9.83-3.51" transform="translate(-132.53 -16.46)"/><path class="cls-2" d="M188.37,29.05c.6.39-.24,2.2-1.06,5.73s-.35,3.76-.95,5.4c-1.17,3.17-3.26,5-5.65,7.14-3,2.61-5.69,5-9.91,6-4.74,1.2-10.91.65-11.54-1.46-.32-1.07,2-3.17,6.65-7.32,3.5-3.12,6.1-5.17,7-5.86a90.38,90.38,0,0,1,7.73-5.51c2.81-1.76,2.44-1.18,5-2.83C187.27,29.35,188,28.79,188.37,29.05Z" transform="translate(-132.53 -16.46)"/><path class="cls-2" d="M266.52,54.42c-3.06-7.33-10.44-10.4-15.42-8.31-3.87,1.62-7.64,6.92-5.51,11.56,1.8,3.9,7.16,6,12.12,4" transform="translate(-132.53 -16.46)"/><path class="cls-2" d="M342.29,149.07c-3.06-7.33-10.43-10.4-15.41-8.31-3.87,1.62-7.64,6.92-5.51,11.56,1.8,3.9,7.16,6,12.12,4" transform="translate(-132.53 -16.46)"/><path class="cls-2" d="M268.51,237.38c-.19-.2.95-1.41,2.12-3.24.8-1.26,1.25-2.16,1.75-3.11a10.38,10.38,0,0,1,1.35-2.35c2.44-3,5.35-4.23,8.67-5.61a43.54,43.54,0,0,1,12.7-2.86c6.81-.76,14.48-.5,14.58.46,0,.12-.09.22-.66.62a19.07,19.07,0,0,1-3.81,2.32c-3.69,1.53-7.29,5.35-15.22,8.4a79.59,79.59,0,0,1-12.29,3.42c-.69.12-2,.35-3.78.77l-2.69.63-1.27.27-.86.18C268.59,237.39,268.54,237.41,268.51,237.38Z" transform="translate(-132.53 -16.46)"/><path class="cls-2" d="M189.36,27.2" transform="translate(-132.53 -16.46)"/><text class="cls-3" transform="translate(6.47 247.63) scale(1.02 1)">sma<tspan class="cls-4" x="39.21" y="0">l</tspan><tspan x="44.46" y="0">l business owner</tspan></text></svg>