<svg id="Layer_1" data-name="Layer 1" xmlns="http://www.w3.org/2000/svg" viewBox="0 0 292.13 251.47"><defs><style>.cls-1,.cls-4{fill:#d9b5d6;stroke:#231f20;stroke-miterlimit:10;}.cls-1{stroke-width:7px;}.cls-2{font-size:24.34px;}.cls-2,.cls-5,.cls-7{fill:#231f20;}.cls-2,.cls-7{font-family:Avenir-Roman, Avenir;}.cls-3{letter-spacing:-0.02em;}.cls-4{stroke-width:3px;}.cls-6{fill:#fde9e9;}.cls-7{font-size:24px;}.cls-8{letter-spacing:-0.02em;}</style></defs><path class="cls-1" d="M139.18,179.69,370.54,179c-.06-71.79-.55-124.23-.85-136.23-.07-2.85-.34-9.65-5.09-12.59-1.69-1-3.63-1.3-11.16-1.55a105.92,105.92,0,0,0-13.7.08c-18.37,1.5-153.55,3-174,.87a52,52,0,0,0-13.93.67c-4.22.76-6.5,1.25-8.34,2.72-3.2,2.56-3.77,6.38-4,7.82C138.34,48.19,138.24,103.68,139.18,179.69Z" transform="translate(-108.95 -24.9)"/><text class="cls-2" transform="translate(84.43 88.42) scale(1.09 1)">&lt;/st<tspan class="cls-3" x="44.15" y="0">r</tspan><tspan x="52.28" y="0">ong&gt;</tspan></text><path class="cls-4" d="M246.25,237.17" transform="translate(-108.95 -24.9)"/><path class="cls-5" d="M136.53,179.33c-3,5.06-13.81,23.17-24.14,41.51-1.77,3.14-5.12,9.26-2.45,12.72,1.93,2.49,6.14,2.54,7.36,2.57,122.05,3,169.42,2.77,264.15,2.29,3.32,0,13.32,0,16.61-5.23,2.85-4.56-.71-10.88-5.31-19.1-4.28-7.65-10.32-18.47-19.36-34.76" transform="translate(-108.95 -24.9)"/><path class="cls-6" d="M142.91,185.19c-2.85,4-13,18.4-22.78,33-1.67,2.5-4.83,7.36-2.3,10.1,1.82,2,5.81,2,7,2,115.43,2.24,160.23,2,249.82,1.5,3.14,0,12.6,0,15.7-4.17,2.69-3.62-.68-8.63-5.05-15.15-4.05-6.07-9.78-14.64-18.34-27.56" transform="translate(-108.95 -24.9)"/><rect class="cls-5" x="99.12" y="188.78" width="95.9" height="7.19"/><text class="cls-7" transform="translate(49.89 241.92)">softwa<tspan class="cls-8" x="70.73" y="0">r</tspan><tspan x="78.74" y="0">e engineer</tspan></text></svg>